<?xml version="1.0" standalone="no"?>
<!DOCTYPE svg PUBLIC "-//W3C//DTD SVG 20010904//EN"
 "http://www.w3.org/TR/2001/REC-SVG-20010904/DTD/svg10.dtd">
<svg version="1.0" xmlns="http://www.w3.org/2000/svg"
 width="1128.000000pt" height="191.000000pt" viewBox="0 0 1128.000000 191.000000"
 preserveAspectRatio="xMidYMid meet">

<g transform="translate(0.000000,191.000000) scale(0.100000,-0.100000)"
fill="#000000" stroke="none">
<path d="M0 955 l0 -955 5640 0 5640 0 0 955 0 955 -5640 0 -5640 0 0 -955z
m7986 629 c7 -29 -31 -172 -54 -203 -26 -36 -49 -37 -82 -6 l-28 27 -41 -41
c-47 -47 -72 -51 -106 -16 -21 20 -25 34 -25 82 0 106 28 163 65 133 13 -10
14 -27 9 -86 -4 -41 -4 -74 0 -74 4 0 25 39 48 88 22 48 41 88 43 90 2 2 13
-1 24 -8 17 -9 21 -20 21 -65 0 -98 28 -78 56 41 8 38 18 72 20 76 8 12 44
-15 50 -38z m302 34 c13 -18 0 -161 -17 -182 -17 -20 -55 -21 -71 -1 -17 20
-30 19 -30 -2 -1 -47 -38 -52 -58 -9 -8 18 -5 42 14 106 13 46 25 84 27 86 1
2 14 -3 27 -9 21 -10 26 -22 30 -67 6 -53 6 -54 18 -27 7 16 12 48 12 73 0 36
3 44 19 44 10 0 23 -6 29 -12z m-228 -39 c9 -17 22 -199 14 -199 -1 0 -9 -3
-18 -6 -10 -4 -20 5 -31 27 -26 49 -10 199 21 199 2 0 8 -9 14 -21z m-4005
-23 c13 -13 27 -36 31 -50 5 -21 -81 -413 -118 -533 -27 -91 -153 -99 -188
-12 -17 40 -58 50 -79 19 -9 -12 -28 -35 -43 -51 -47 -51 -132 -33 -157 33 -5
13 -37 127 -71 253 -67 250 -69 270 -17 308 17 13 41 21 64 20 53 -2 86 -41
108 -132 9 -39 20 -71 24 -71 5 0 14 18 21 40 16 50 48 79 91 86 49 7 95 -24
110 -76 7 -22 15 -40 19 -40 3 0 16 42 28 93 16 70 28 97 47 115 36 31 98 30
130 -2z m461 -21 c24 -10 39 -25 50 -50 14 -35 13 -44 -52 -283 -58 -216 -70
-250 -95 -274 -21 -21 -39 -28 -67 -28 -44 1 -63 14 -89 60 -28 49 -68 49 -96
0 -26 -46 -45 -59 -89 -60 -41 0 -78 30 -78 63 0 25 87 349 112 415 21 55 62
92 103 92 41 0 82 -37 103 -92 l20 -53 21 75 c29 100 38 116 75 134 38 19 39
19 82 1z m2885 -65 c39 -21 17 -190 -26 -206 -9 -4 -29 2 -45 14 l-28 21 -11
-29 c-12 -34 -17 -36 -43 -13 -23 20 -23 29 4 124 15 58 26 79 38 79 27 0 40
-22 40 -66 0 -44 13 -66 24 -38 3 9 6 30 6 47 0 34 10 77 17 77 2 0 13 -5 24
-10z m-297 -23 c14 -20 13 -31 -4 -99 -23 -92 -43 -133 -71 -149 -19 -9 -26
-7 -52 19 l-30 31 -39 -40 c-45 -47 -78 -51 -113 -13 -22 24 -24 32 -19 92 10
119 27 149 67 119 15 -10 16 -19 7 -66 -5 -29 -10 -63 -10 -74 0 -37 35 7 64
83 15 38 31 72 35 75 4 2 17 -3 29 -11 17 -12 22 -27 24 -77 l3 -62 16 30 c9
17 22 57 29 90 7 33 14 63 17 68 9 14 33 7 47 -16z m84 -29 c6 -13 10 -61 9
-108 -2 -68 -5 -85 -18 -88 -9 -1 -20 8 -27 23 -12 27 -16 152 -6 179 9 23 29
20 42 -6z m422 -8 c25 -15 -6 -35 -84 -54 -51 -12 -72 -13 -83 -5 -14 12 -18
39 -5 39 4 1 30 7 57 15 60 16 95 18 115 5z m-1032 -127 c11 -28 23 -44 39
-48 24 -6 30 -19 13 -30 -6 -4 -8 -15 -5 -25 13 -42 -33 -78 -63 -48 -9 9 -9
15 0 25 9 11 6 12 -16 3 -15 -5 -32 -9 -38 -7 -6 1 -14 -9 -18 -23 -7 -28 -44
-40 -53 -16 -10 26 33 158 62 187 36 39 61 34 79 -18z m-444 24 c14 -10 17
-23 14 -44 l-4 -31 54 29 c66 35 107 38 123 8 13 -25 -1 -39 -38 -39 -49 0
-55 -10 -23 -40 39 -36 38 -64 -4 -106 -33 -33 -84 -47 -87 -24 -1 6 -2 14 -3
20 -1 5 15 18 34 29 54 28 51 49 -7 53 -36 2 -50 8 -58 23 -5 11 -17 20 -25
18 -91 -12 -86 -9 -100 -73 -7 -32 -10 -70 -6 -85 8 -31 -15 -45 -40 -24 -13
11 -15 26 -11 76 l5 63 -33 0 c-27 0 -35 5 -42 25 -13 41 -30 15 -35 -56 -5
-64 -4 -67 19 -78 32 -15 25 -33 -18 -47 -114 -38 -112 -38 -126 -18 -19 26
-16 34 16 45 34 12 39 21 48 97 5 49 4 55 -10 49 -18 -7 -47 17 -47 38 0 17
88 45 141 45 42 0 66 -19 47 -38 -15 -15 -7 -15 29 -1 15 6 35 12 43 14 78 16
100 27 100 49 0 37 14 45 44 23z m-2287 -472 c56 -17 103 -49 103 -71 0 -8
-19 -35 -42 -60 l-43 -45 -47 21 c-63 28 -107 20 -148 -26 -51 -58 -35 -155
30 -189 36 -19 107 -19 140 0 14 8 32 14 40 14 18 0 72 -85 68 -108 -2 -9 -23
-27 -48 -41 -40 -22 -57 -25 -145 -25 -118 0 -158 16 -222 89 -49 56 -67 113
-61 204 3 55 10 79 33 118 68 109 209 158 342 119z m561 -15 c95 -41 151 -130
152 -239 0 -86 -16 -134 -64 -188 -58 -66 -122 -93 -216 -92 -86 1 -121 11
-183 55 -95 67 -131 224 -77 337 64 135 237 192 388 127z m1091 19 c57 -12
126 -65 116 -89 -4 -8 -24 -30 -46 -48 l-39 -34 -43 21 c-59 29 -117 27 -117
-4 0 -14 35 -28 100 -41 52 -10 104 -39 134 -74 36 -43 38 -140 4 -190 -39
-57 -88 -75 -203 -75 -108 0 -154 16 -203 68 -29 31 -24 51 23 97 30 29 38 33
53 22 64 -45 131 -66 168 -52 37 15 18 38 -45 56 -144 39 -201 88 -201 172 0
133 131 207 299 171z m-634 -137 l90 -127 3 128 3 128 77 -3 77 -3 3 -249 c2
-175 -1 -253 -9 -262 -17 -21 -122 -19 -147 4 -10 9 -55 66 -98 127 l-79 110
-3 -120 c-2 -80 -7 -122 -15 -127 -19 -12 -122 -9 -135 4 -13 13 -18 499 -5
511 3 4 38 7 77 7 l71 -1 90 -127z m1015 -50 c5 -168 6 -174 29 -193 13 -10
31 -19 41 -19 10 0 28 9 41 19 23 19 24 25 29 193 l5 173 78 3 77 3 0 -186 c0
-205 -5 -228 -60 -282 -91 -89 -282 -80 -363 17 -15 17 -31 47 -37 68 -11 41
-14 365 -3 376 4 4 41 5 83 4 l75 -3 5 -173z m625 78 c33 -55 65 -98 70 -97 6
2 37 47 70 100 l60 97 70 -3 70 -2 3 -249 c2 -175 -1 -253 -9 -262 -7 -9 -32
-14 -64 -14 -88 0 -85 -4 -85 133 l0 121 -48 -70 c-64 -94 -78 -94 -136 -7
l-46 68 0 -111 c0 -72 -4 -114 -12 -122 -12 -12 -104 -17 -132 -6 -14 5 -16
38 -16 258 0 139 3 256 7 259 3 4 36 7 72 7 l66 0 60 -100z m809 77 c51 -29
76 -64 83 -115 8 -63 -5 -109 -43 -151 -19 -21 -34 -42 -34 -46 0 -5 21 -44
46 -87 25 -44 43 -86 40 -94 -8 -20 -149 -20 -170 1 -8 8 -32 47 -52 85 -50
92 -64 91 -64 -3 0 -43 -5 -78 -12 -85 -16 -16 -120 -16 -136 0 -13 13 -18
499 -5 511 3 4 74 7 157 7 138 0 154 -2 190 -23z m594 -30 c3 -48 1 -51 -97
-183 -56 -73 -101 -136 -101 -139 0 -3 42 -5 93 -5 59 0 97 -4 105 -12 17 -17
15 -113 -2 -127 -9 -8 -75 -11 -217 -9 l-204 3 -3 56 -3 55 96 126 c52 68 95
128 95 131 0 3 -37 7 -82 9 l-83 3 -3 73 -3 72 203 -2 203 -3 3 -48z"/>
<path d="M6526 1231 c-4 -7 -5 -15 -2 -18 9 -9 19 4 14 18 -4 11 -6 11 -12 0z"/>
<path d="M4213 670 c-23 -13 -35 -31 -43 -60 -29 -106 67 -191 160 -143 42 22
60 54 60 112 0 36 -6 49 -34 77 -40 40 -92 46 -143 14z"/>
<path d="M7124 686 c-3 -8 -4 -29 -2 -48 3 -33 4 -33 53 -33 45 0 50 3 59 27
8 22 6 32 -9 48 -22 24 -92 28 -101 6z"/>
</g>
</svg>
