<svg version="1.1" id="Layer_1" xmlns="http://www.w3.org/2000/svg" xmlns:xlink="http://www.w3.org/1999/xlink" x="0px" y="0px"
	 width="100%" viewBox="0 0 200 200" enable-background="new 0 0 200 200" xml:space="preserve">
<path fill="#000000" opacity="1.000000" stroke="none" 
	d="
M116.000000,201.000000 
	C77.357201,201.000000 39.214397,201.000000 1.035799,201.000000 
	C1.035799,134.398911 1.035799,67.797783 1.035799,1.098330 
	C67.559296,1.098330 134.118790,1.098330 200.839142,1.098330 
	C200.839142,67.666351 200.839142,134.333145 200.839142,201.000000 
	C172.798065,201.000000 144.649033,201.000000 116.000000,201.000000 
M68.459045,179.808029 
	C89.966850,179.871353 111.474655,179.943314 132.982498,179.957214 
	C133.645081,179.957657 134.308060,179.355148 135.872208,179.013138 
	C154.330566,178.547104 166.984955,169.422043 175.238235,153.202988 
	C180.807388,142.258682 180.135117,130.671707 179.804733,118.195702 
	C179.895035,117.040947 179.813080,115.841087 180.101913,114.738327 
	C183.477142,101.851349 186.367142,88.802284 190.496353,76.158882 
	C193.775620,66.118011 187.254028,56.579296 178.101364,55.343246 
	C177.689438,54.992855 177.277512,54.642464 176.753952,53.555725 
	C174.943573,50.235641 173.396408,46.736202 171.277435,43.626385 
	C161.891800,29.852060 148.826859,22.949461 132.084381,23.003071 
	C112.418915,23.066042 92.751244,23.177055 73.088226,22.948839 
	C63.534676,22.837957 54.503910,24.364679 46.302139,29.356035 
	C36.644104,35.233635 29.345970,43.118282 25.814611,54.651218 
	C25.483513,55.064659 25.152416,55.478096 24.043455,56.055012 
	C15.102946,55.398235 9.747200,65.742752 11.211518,72.007912 
	C13.354640,81.177376 15.913936,90.248795 18.212835,99.382896 
	C19.899647,106.085030 21.453247,112.820686 23.054823,120.553970 
	C23.343840,126.395554 23.632854,132.237137 23.953684,138.942017 
	C24.942232,143.743576 24.827852,149.164337 27.114405,153.237183 
	C35.987137,169.041443 48.894417,179.184738 68.459045,179.808029 
z"/>
<path fill="#DE065F" opacity="1.000000" stroke="none" 
	d="
M23.066216,119.541405 
	C21.453247,112.820686 19.899647,106.085030 18.212835,99.382896 
	C15.913936,90.248795 13.354640,81.177376 11.211518,72.007912 
	C9.747200,65.742752 15.102946,55.398235 24.827473,56.014000 
	C33.364376,56.894264 37.768246,61.250004 39.538368,68.836205 
	C41.017704,75.176201 43.045197,81.388290 44.829945,87.657013 
	C45.261749,87.601295 45.693558,87.545578 46.125362,87.489861 
	C48.203007,82.462471 50.280651,77.435081 52.391300,72.405640 
	C52.424301,72.403587 52.420155,72.337585 52.685646,72.235985 
	C53.405720,71.548225 53.860298,70.962059 54.235802,70.321640 
	C54.156731,70.267395 54.332409,70.344063 54.597694,70.256271 
	C55.074894,69.870361 55.286804,69.572235 55.752144,69.207161 
	C56.310646,68.973137 56.615726,68.806068 57.293716,68.604378 
	C63.260345,66.033249 68.222893,67.927879 73.166695,70.907944 
	C73.281647,71.054695 73.609047,71.233040 73.736465,71.571304 
	C75.940788,76.287766 78.017708,80.665947 80.094627,85.044136 
	C80.505859,85.033073 80.917091,85.022003 81.328323,85.010933 
	C83.071564,77.310402 84.814804,69.609879 86.668999,61.596512 
	C86.821968,60.844387 86.863976,60.405098 87.075684,59.659058 
	C88.444038,56.552513 89.642700,53.752724 90.969666,50.848282 
	C91.097961,50.743633 91.237358,50.443268 91.498978,50.336353 
	C91.955116,49.916855 92.149628,49.604275 92.309364,49.289337 
	C92.274582,49.286983 92.282738,49.356228 92.658676,49.290726 
	C104.758347,43.827168 113.647423,48.505604 115.160110,61.055191 
	C115.149208,61.469326 115.225357,61.685989 115.441406,62.263882 
	C115.590675,63.427052 115.666405,64.205666 115.458862,65.174652 
	C114.555595,66.873871 113.733543,68.332893 113.347229,69.899376 
	C109.975945,83.569878 106.658524,97.253830 103.377167,110.946266 
	C101.921791,117.019302 100.586082,123.121010 99.195175,129.427032 
	C99.194298,129.644348 99.031822,130.047516 98.811172,130.339417 
	C98.141655,132.844009 97.692802,135.056732 97.246964,137.472748 
	C97.249985,137.676071 97.092186,138.050888 96.892715,138.288239 
	C96.410500,139.502563 96.127739,140.479553 95.755363,141.677612 
	C95.665749,141.898697 95.322853,142.230438 95.023422,142.353882 
	C94.191467,143.372360 93.658928,144.267380 92.991241,145.376923 
	C92.425652,145.844055 91.995224,146.096664 91.285599,146.406693 
	C90.701134,146.681503 90.395859,146.898880 89.971756,147.231079 
	C89.852936,147.345932 89.526558,147.398071 89.246002,147.451965 
	C88.653740,147.718826 88.342041,147.931808 87.828033,148.295532 
	C87.298927,148.502045 86.972130,148.557785 86.235863,148.504639 
	C84.221535,148.525864 82.616669,148.656006 80.730400,148.798492 
	C79.960091,148.556549 79.471184,148.302246 78.793472,147.835724 
	C78.085091,147.435165 77.565529,147.246841 76.710266,146.968414 
	C74.185738,144.084244 72.227013,141.059280 69.731743,138.572754 
	C67.896286,136.743729 65.321388,134.446716 63.144936,134.516251 
	C61.042973,134.583405 59.029289,137.414093 56.783440,139.225632 
	C56.461399,139.939011 56.332748,140.457550 55.983547,141.171478 
	C55.425766,142.070023 55.088535,142.773178 54.468330,143.604507 
	C53.539433,144.512238 52.893513,145.291809 51.949795,146.190857 
	C50.760670,146.894302 49.869343,147.478226 48.689274,148.042114 
	C47.917088,148.308350 47.433640,148.594635 46.944790,148.894897 
	C46.939388,148.908905 46.912731,148.895035 46.491398,148.856293 
	C43.052876,148.517609 40.035690,148.217667 36.952942,147.821136 
	C36.887383,147.724564 36.653961,147.729004 36.459076,147.475403 
	C35.866306,147.091248 35.468422,146.960678 35.079823,146.862030 
	C35.089108,146.893951 35.143837,146.856201 35.024860,146.585938 
	C34.264874,145.896530 33.623863,145.477371 32.990463,145.030121 
	C32.998077,145.002014 32.941872,145.017212 32.877991,144.726364 
	C32.274284,143.882355 31.734467,143.329193 31.185326,142.812347 
	C31.176008,142.848679 31.248850,142.866547 31.225967,142.530060 
	C30.542711,141.056854 29.882334,139.920135 29.199787,138.553802 
	C29.177616,138.324188 28.951092,137.922256 29.014870,137.547043 
	C28.483440,135.303650 27.888229,133.435471 27.282902,131.285950 
	C27.145872,130.653091 27.018959,130.301559 26.934692,129.569824 
	C25.673632,125.973549 24.369923,122.757477 23.066216,119.541405 
z"/>
<path fill="#032035" opacity="1.000000" stroke="none" 
	d="
M91.237358,50.443268 
	C91.237358,50.443268 91.097961,50.743633 90.647430,50.938309 
	C87.432808,53.456127 85.493492,56.086563 86.905975,59.965809 
	C86.863976,60.405098 86.821968,60.844387 86.362167,61.739983 
	C84.821724,66.076904 83.744476,69.971466 82.556763,73.832062 
	C81.986458,75.685791 81.207413,77.475304 80.531517,79.271011 
	C77.879662,76.191833 75.744354,73.712433 73.609047,71.233040 
	C73.609047,71.233040 73.281647,71.054695 73.068359,70.588028 
	C67.868965,65.141022 61.242744,64.524582 56.920807,68.639000 
	C56.615726,68.806068 56.310646,68.973137 55.493221,69.306572 
	C54.764721,69.763306 54.548565,70.053688 54.332409,70.344063 
	C54.332409,70.344063 54.156731,70.267395 53.932220,70.364075 
	C53.278526,71.086357 52.849342,71.711975 52.420155,72.337585 
	C52.420155,72.337585 52.424301,72.403587 52.061172,72.465508 
	C49.636799,75.880173 47.575558,79.232910 45.038857,83.359024 
	C43.399429,77.542175 41.824005,72.830399 40.767292,68.005028 
	C39.018127,60.017658 34.100552,55.659321 26.225712,54.308811 
	C29.345970,43.118282 36.644104,35.233635 46.302139,29.356035 
	C54.503910,24.364679 63.534676,22.837957 73.088226,22.948839 
	C92.751244,23.177055 112.418915,23.066042 132.084381,23.003071 
	C148.826859,22.949461 161.891800,29.852060 171.277435,43.626385 
	C173.396408,46.736202 174.943573,50.235641 176.448212,53.916031 
	C173.065796,56.147129 169.989120,58.017918 166.934174,59.925648 
	C166.955872,59.962585 166.882431,59.918438 166.560852,60.029274 
	C164.763855,62.837856 162.922241,65.404289 161.896896,68.263451 
	C160.268616,72.803932 159.185394,77.539886 157.715530,82.746002 
	C154.728424,78.515465 152.409439,75.231155 149.878265,71.815628 
	C149.400711,71.473991 149.192657,71.217125 148.957031,70.578926 
	C143.886566,65.135658 137.342972,64.648056 131.873398,69.091614 
	C131.734360,69.195496 131.401031,69.292252 131.042816,69.308128 
	C127.801559,72.831490 124.918541,76.338974 121.916069,79.991798 
	C119.831932,72.014183 117.775261,63.652966 115.437798,55.370991 
	C113.949104,50.096359 110.086075,47.072430 104.828438,45.957363 
	C100.129410,44.960777 95.545441,44.840626 92.282738,49.356228 
	C92.282738,49.356228 92.274582,49.286983 92.051254,49.400909 
	C91.631073,49.824314 91.434212,50.133793 91.237358,50.443268 
z"/>
<path fill="#DD075F" opacity="1.000000" stroke="none" 
	d="
M131.401031,69.292252 
	C131.401031,69.292252 131.734360,69.195496 132.256241,69.078156 
	C138.667313,65.715149 143.907883,67.871063 149.041946,70.913803 
	C149.192657,71.217125 149.400711,71.473991 149.970825,72.163376 
	C152.462280,77.638176 154.649033,82.634026 157.145187,88.336731 
	C160.627579,78.173309 163.755005,69.045876 166.882431,59.918438 
	C166.882431,59.918438 166.955872,59.962585 167.279236,59.823036 
	C171.158829,58.412716 174.715042,57.141949 178.271255,55.871178 
	C187.254028,56.579296 193.775620,66.118011 190.496353,76.158882 
	C186.367142,88.802284 183.477142,101.851349 180.101913,114.738327 
	C179.813080,115.841087 179.895035,117.040947 179.492294,118.729843 
	C177.206802,125.363831 175.137711,131.434692 173.286346,137.571243 
	C171.227646,144.394958 167.042526,148.384659 160.977707,148.961273 
	C154.678040,149.560211 149.743134,146.710236 146.606888,140.409943 
	C144.986542,137.154953 143.318771,134.062805 139.071579,134.225739 
	C135.199509,134.374268 133.507294,137.071121 131.961533,140.280396 
	C127.658417,149.214432 119.307991,151.463882 110.721710,146.002686 
	C110.301910,145.606247 110.015388,145.428177 109.786850,145.197540 
	C109.844833,145.144974 109.762787,145.278275 109.638977,145.048340 
	C109.242104,144.609039 108.969025,144.399658 108.460350,143.999756 
	C107.748650,142.934555 107.272545,142.059891 106.777008,140.790863 
	C105.749763,137.217346 104.741951,134.038208 103.577621,130.491211 
	C103.330490,129.066757 103.239891,128.010162 103.338478,126.653641 
	C104.676300,122.543442 106.011497,118.777931 106.938721,114.914505 
	C109.763718,103.143776 112.333946,91.310928 115.268669,79.568573 
	C115.693588,77.868416 117.572990,76.531784 118.867813,75.347572 
	C119.020943,76.106018 119.085587,76.543816 119.101715,77.326416 
	C119.420128,78.737221 119.787056,79.803223 120.184570,80.883423 
	C120.215164,80.897614 120.184250,80.957558 120.167145,81.274643 
	C120.413216,82.382896 120.676384,83.174065 121.079544,84.185448 
	C122.269638,83.456284 123.603340,82.682266 124.318443,81.525757 
	C126.795448,77.519737 129.057297,73.380684 131.401031,69.292252 
z"/>
<path fill="#051F35" opacity="1.000000" stroke="none" 
	d="
M110.854980,146.221039 
	C119.307991,151.463882 127.658417,149.214432 131.961533,140.280396 
	C133.507294,137.071121 135.199509,134.374268 139.071579,134.225739 
	C143.318771,134.062805 144.986542,137.154953 146.606888,140.409943 
	C149.743134,146.710236 154.678040,149.560211 160.977707,148.961273 
	C167.042526,148.384659 171.227646,144.394958 173.286346,137.571243 
	C175.137711,131.434692 177.206802,125.363831 179.503677,119.152832 
	C180.135117,130.671707 180.807388,142.258682 175.238235,153.202988 
	C166.984955,169.422043 154.330566,178.547104 134.954437,179.000946 
	C112.037857,179.010406 90.039062,179.032074 68.040268,179.053741 
	C48.894417,179.184738 35.987137,169.041443 27.114405,153.237183 
	C24.827852,149.164337 24.942232,143.743576 23.958273,138.047928 
	C23.962862,133.778442 23.962862,130.403030 23.962862,126.028679 
	C25.395908,127.947121 26.143976,128.948578 26.892044,129.950027 
	C27.018959,130.301559 27.145872,130.653091 27.263805,131.668396 
	C27.820246,134.195526 28.385670,136.058899 28.951092,137.922256 
	C28.951092,137.922256 29.177616,138.324188 29.166733,138.902649 
	C29.853518,140.609589 30.551184,141.738068 31.248850,142.866547 
	C31.248850,142.866547 31.176008,142.848679 31.234367,143.112427 
	C31.842442,143.923187 32.392155,144.470200 32.941872,145.017212 
	C32.941872,145.017212 32.998077,145.002014 33.103748,145.306610 
	C33.854225,146.026199 34.499031,146.441208 35.143837,146.856201 
	C35.143837,146.856201 35.089108,146.893951 35.309097,147.067047 
	C35.904049,147.403091 36.279007,147.566040 36.653961,147.729004 
	C36.653961,147.729004 36.887383,147.724564 37.181305,148.117004 
	C40.621059,148.637970 43.766895,148.766510 46.912731,148.895050 
	C46.912731,148.895035 46.939388,148.908905 47.226871,148.886871 
	C48.002239,148.597260 48.490124,148.329712 48.978012,148.062149 
	C49.869343,147.478226 50.760670,146.894302 52.253876,146.098511 
	C53.487606,145.083221 54.119461,144.279785 54.751312,143.476349 
	C55.088535,142.773178 55.425766,142.070023 56.166264,140.972412 
	C56.705299,140.062256 56.841064,139.546524 56.976830,139.030807 
	C59.029289,137.414093 61.042973,134.583405 63.144936,134.516251 
	C65.321388,134.446716 67.896286,136.743729 69.731743,138.572754 
	C72.227013,141.059280 74.185738,144.084244 76.871246,147.207886 
	C77.906044,147.707657 78.444160,147.877808 78.982285,148.047943 
	C79.471184,148.302246 79.960091,148.556549 81.119125,148.931534 
	C83.407944,148.905991 85.026634,148.759766 86.645325,148.613541 
	C86.972130,148.557785 87.298927,148.502045 88.127113,148.292252 
	C88.927849,147.891479 89.227203,147.644775 89.526550,147.398071 
	C89.526558,147.398071 89.852936,147.345932 90.264877,147.215790 
	C90.972816,146.840179 91.268806,146.594711 91.564796,146.349258 
	C91.995224,146.096664 92.425652,145.844055 93.304581,145.281403 
	C94.276337,144.057693 94.799599,143.144073 95.322853,142.230438 
	C95.322853,142.230438 95.665749,141.898697 96.025574,141.502319 
	C96.620995,140.087585 96.856590,139.069244 97.092186,138.050888 
	C97.092186,138.050888 97.249985,137.676071 97.489090,137.192123 
	C98.162735,134.487961 98.597275,132.267731 99.031815,130.047516 
	C99.031822,130.047516 99.194298,129.644348 99.417221,129.224808 
	C100.620728,127.829620 100.145073,124.094261 103.149284,126.953560 
	C103.239891,128.010162 103.330490,129.066757 103.513763,130.858521 
	C104.669762,134.790878 105.733101,137.988037 106.796440,141.185211 
	C107.272545,142.059891 107.748650,142.934555 108.535843,144.264938 
	C109.152229,144.906525 109.457504,145.092392 109.762787,145.278275 
	C109.762787,145.278275 109.844833,145.144974 109.886490,145.445984 
	C110.237091,145.905029 110.546036,146.063034 110.854980,146.221039 
z"/>
<path fill="#3F0F3A" opacity="1.000000" stroke="none" 
	d="
M26.020161,54.480015 
	C34.100552,55.659321 39.018127,60.017658 40.767292,68.005028 
	C41.824005,72.830399 43.399429,77.542175 45.038857,83.359024 
	C47.575558,79.232910 49.636799,75.880173 52.028168,72.467560 
	C50.280651,77.435081 48.203007,82.462471 46.125362,87.489861 
	C45.693558,87.545578 45.261749,87.601295 44.829945,87.657013 
	C43.045197,81.388290 41.017704,75.176201 39.538368,68.836205 
	C37.768246,61.250004 33.364376,56.894264 25.216404,55.932259 
	C25.152416,55.478096 25.483513,55.064659 26.020161,54.480015 
z"/>
<path fill="#7F8F99" opacity="1.000000" stroke="none" 
	d="
M68.249657,179.430878 
	C90.039062,179.032074 112.037857,179.010406 134.503754,179.011230 
	C134.308060,179.355148 133.645081,179.957657 132.982498,179.957214 
	C111.474655,179.943314 89.966850,179.871353 68.249657,179.430878 
z"/>
<path fill="#2A233C" opacity="1.000000" stroke="none" 
	d="
M26.934692,129.569824 
	C26.143976,128.948578 25.395908,127.947121 23.962862,126.028679 
	C23.962862,130.403030 23.962862,133.778442 23.942368,137.616272 
	C23.632854,132.237137 23.343840,126.395554 23.060518,120.047684 
	C24.369923,122.757477 25.673632,125.973549 26.934692,129.569824 
z"/>
<path fill="#3F0F3A" opacity="1.000000" stroke="none" 
	d="
M178.186310,55.607216 
	C174.715042,57.141949 171.158829,58.412716 167.257538,59.786095 
	C169.989120,58.017918 173.065796,56.147129 176.504028,54.284203 
	C177.277512,54.642464 177.689438,54.992855 178.186310,55.607216 
z"/>
<path fill="#B20750" opacity="1.000000" stroke="none" 
	d="
M103.338478,126.653641 
	C100.145073,124.094261 100.620728,127.829620 99.418091,129.007477 
	C100.586082,123.121010 101.921791,117.019302 103.377167,110.946266 
	C106.658524,97.253830 109.975945,83.569878 113.347229,69.899376 
	C113.733543,68.332893 114.555595,66.873871 115.725098,65.445129 
	C117.109505,68.692467 117.944420,71.859695 118.779327,75.026932 
	C117.572990,76.531784 115.693588,77.868416 115.268669,79.568573 
	C112.333946,91.310928 109.763718,103.143776 106.938721,114.914505 
	C106.011497,118.777931 104.676300,122.543442 103.338478,126.653641 
z"/>
<path fill="#3F0F3A" opacity="1.000000" stroke="none" 
	d="
M118.867813,75.347572 
	C117.944420,71.859695 117.109505,68.692467 116.008362,65.254761 
	C115.666405,64.205666 115.590675,63.427052 115.498352,62.090416 
	C115.482941,61.268444 115.382614,61.051323 115.180794,60.881042 
	C113.647423,48.505604 104.758347,43.827168 92.658676,49.290726 
	C95.545441,44.840626 100.129410,44.960777 104.828438,45.957363 
	C110.086075,47.072430 113.949104,50.096359 115.437798,55.370991 
	C117.775261,63.652966 119.831932,72.014183 121.916069,79.991798 
	C124.918541,76.338974 127.801559,72.831490 131.042816,69.308128 
	C129.057297,73.380684 126.795448,77.519737 124.318443,81.525757 
	C123.603340,82.682266 122.269638,83.456284 121.101212,83.866379 
	C120.716667,82.537247 120.450455,81.747398 120.184250,80.957558 
	C120.184250,80.957558 120.215164,80.897614 120.199158,80.540207 
	C119.838852,79.115746 119.494537,78.048683 119.150223,76.981621 
	C119.085587,76.543816 119.020943,76.106018 118.867813,75.347572 
z"/>
<path fill="#3F0F3A" opacity="1.000000" stroke="none" 
	d="
M73.736465,71.571304 
	C75.744354,73.712433 77.879662,76.191833 80.531517,79.271011 
	C81.207413,77.475304 81.986458,75.685791 82.556763,73.832062 
	C83.744476,69.971466 84.821724,66.076904 86.251205,62.052822 
	C84.814804,69.609879 83.071564,77.310402 81.328323,85.010933 
	C80.917091,85.022003 80.505859,85.033073 80.094627,85.044136 
	C78.017708,80.665947 75.940788,76.287766 73.736465,71.571304 
z"/>
<path fill="#3F0F3A" opacity="1.000000" stroke="none" 
	d="
M57.293716,68.604378 
	C61.242744,64.524582 67.868965,65.141022 72.953415,70.441284 
	C68.222893,67.927879 63.260345,66.033249 57.293716,68.604378 
z"/>
<path fill="#3F0F3A" opacity="1.000000" stroke="none" 
	d="
M87.075676,59.659058 
	C85.493492,56.086563 87.432808,53.456127 90.519135,51.042961 
	C89.642700,53.752724 88.444038,56.552513 87.075676,59.659058 
z"/>
<path fill="#2A233C" opacity="1.000000" stroke="none" 
	d="
M46.491398,148.856308 
	C43.766895,148.766510 40.621059,148.637970 37.246864,148.213593 
	C40.035690,148.217667 43.052876,148.517609 46.491398,148.856308 
z"/>
<path fill="#B20750" opacity="1.000000" stroke="none" 
	d="
M98.811165,130.339417 
	C98.597275,132.267731 98.162735,134.487961 97.486069,136.988800 
	C97.692802,135.056732 98.141655,132.844009 98.811165,130.339417 
z"/>
<path fill="#2A233C" opacity="1.000000" stroke="none" 
	d="
M29.014872,137.547043 
	C28.385670,136.058899 27.820246,134.195526 27.273922,131.949738 
	C27.888229,133.435471 28.483440,135.303650 29.014872,137.547043 
z"/>
<path fill="#2A233C" opacity="1.000000" stroke="none" 
	d="
M31.225967,142.530060 
	C30.551184,141.738068 29.853518,140.609589 29.188904,139.132263 
	C29.882334,139.920135 30.542711,141.056854 31.225967,142.530060 
z"/>
<path fill="#B20750" opacity="1.000000" stroke="none" 
	d="
M86.235863,148.504639 
	C85.026634,148.759766 83.407944,148.905991 81.400528,148.919174 
	C82.616669,148.656006 84.221535,148.525864 86.235863,148.504639 
z"/>
<path fill="#B20750" opacity="1.000000" stroke="none" 
	d="
M95.023422,142.353882 
	C94.799599,143.144073 94.276337,144.057693 93.439735,145.066864 
	C93.658928,144.267380 94.191467,143.372360 95.023422,142.353882 
z"/>
<path fill="#3F0F3A" opacity="1.000000" stroke="none" 
	d="
M52.685646,72.235985 
	C52.849342,71.711975 53.278526,71.086357 54.011295,70.418320 
	C53.860298,70.962059 53.405720,71.548225 52.685646,72.235985 
z"/>
<path fill="#B20750" opacity="1.000000" stroke="none" 
	d="
M96.892715,138.288239 
	C96.856590,139.069244 96.620995,140.087585 96.115189,141.281250 
	C96.127739,140.479553 96.410500,139.502563 96.892715,138.288239 
z"/>
<path fill="#2A233C" opacity="1.000000" stroke="none" 
	d="
M32.877987,144.726364 
	C32.392155,144.470200 31.842442,143.923187 31.243687,143.076111 
	C31.734467,143.329193 32.274284,143.882355 32.877987,144.726364 
z"/>
<path fill="#2A233C" opacity="1.000000" stroke="none" 
	d="
M54.468334,143.604507 
	C54.119461,144.279785 53.487606,145.083221 52.551670,145.979004 
	C52.893513,145.291809 53.539433,144.512238 54.468334,143.604507 
z"/>
<path fill="#2A233C" opacity="1.000000" stroke="none" 
	d="
M35.024860,146.585938 
	C34.499031,146.441208 33.854225,146.026199 33.096138,145.334717 
	C33.623863,145.477371 34.264874,145.896530 35.024860,146.585938 
z"/>
<path fill="#2A233C" opacity="1.000000" stroke="none" 
	d="
M48.689270,148.042114 
	C48.490124,148.329712 48.002239,148.597260 47.232273,148.872864 
	C47.433640,148.594635 47.917088,148.308350 48.689270,148.042114 
z"/>
<path fill="#2A233C" opacity="1.000000" stroke="none" 
	d="
M56.783440,139.225632 
	C56.841064,139.546524 56.705299,140.062256 56.386818,140.777039 
	C56.332748,140.457550 56.461399,139.939011 56.783440,139.225632 
z"/>
<path fill="#B20750" opacity="1.000000" stroke="none" 
	d="
M78.793465,147.835724 
	C78.444160,147.877808 77.906044,147.707657 77.206947,147.298004 
	C77.565529,147.246841 78.085091,147.435165 78.793465,147.835724 
z"/>
<path fill="#B20750" opacity="1.000000" stroke="none" 
	d="
M91.285599,146.406693 
	C91.268806,146.594711 90.972816,146.840179 90.383705,147.100937 
	C90.395859,146.898880 90.701134,146.681503 91.285599,146.406693 
z"/>
<path fill="#2A233C" opacity="1.000000" stroke="none" 
	d="
M36.459076,147.475403 
	C36.279007,147.566040 35.904049,147.403091 35.299812,147.035126 
	C35.468422,146.960678 35.866306,147.091248 36.459076,147.475403 
z"/>
<path fill="#B20750" opacity="1.000000" stroke="none" 
	d="
M89.246002,147.451965 
	C89.227203,147.644775 88.927849,147.891479 88.329414,148.141479 
	C88.342041,147.931808 88.653740,147.718826 89.246002,147.451965 
z"/>
<path fill="#B20750" opacity="1.000000" stroke="none" 
	d="
M115.160110,61.055191 
	C115.382614,61.051323 115.482941,61.268444 115.424805,61.705864 
	C115.225357,61.685989 115.149208,61.469326 115.160110,61.055191 
z"/>
<path fill="#3F0F3A" opacity="1.000000" stroke="none" 
	d="
M54.597694,70.256271 
	C54.548565,70.053688 54.764721,69.763306 55.239792,69.373520 
	C55.286804,69.572235 55.074894,69.870361 54.597694,70.256271 
z"/>
<path fill="#3F0F3A" opacity="1.000000" stroke="none" 
	d="
M91.498978,50.336353 
	C91.434212,50.133793 91.631073,49.824314 92.086037,49.403263 
	C92.149628,49.604275 91.955116,49.916855 91.498978,50.336353 
z"/>
<path fill="#3F0F3A" opacity="1.000000" stroke="none" 
	d="
M166.560852,60.029274 
	C163.755005,69.045876 160.627579,78.173309 157.145187,88.336731 
	C154.649033,82.634026 152.462280,77.638176 150.182983,72.294586 
	C152.409439,75.231155 154.728424,78.515465 157.715530,82.746002 
	C159.185394,77.539886 160.268616,72.803932 161.896896,68.263451 
	C162.922241,65.404289 164.763855,62.837856 166.560852,60.029274 
z"/>
<path fill="#3F0F3A" opacity="1.000000" stroke="none" 
	d="
M148.957031,70.578926 
	C143.907883,67.871063 138.667313,65.715149 132.395279,68.974274 
	C137.342972,64.648056 143.886566,65.135658 148.957031,70.578926 
z"/>
<path fill="#B20750" opacity="1.000000" stroke="none" 
	d="
M106.777008,140.790863 
	C105.733101,137.988037 104.669762,134.790878 103.670280,131.226379 
	C104.741951,134.038208 105.749763,137.217346 106.777008,140.790863 
z"/>
<path fill="#B20750" opacity="1.000000" stroke="none" 
	d="
M119.101715,77.326416 
	C119.494537,78.048683 119.838852,79.115746 120.168571,80.526016 
	C119.787056,79.803223 119.420128,78.737221 119.101715,77.326416 
z"/>
<path fill="#B20750" opacity="1.000000" stroke="none" 
	d="
M120.167145,81.274643 
	C120.450455,81.747398 120.716667,82.537247 120.961212,83.646164 
	C120.676384,83.174065 120.413216,82.382896 120.167145,81.274643 
z"/>
<path fill="#B20750" opacity="1.000000" stroke="none" 
	d="
M110.721710,146.002686 
	C110.546036,146.063034 110.237091,145.905029 109.828506,145.498566 
	C110.015388,145.428177 110.301910,145.606247 110.721710,146.002686 
z"/>
<path fill="#B20750" opacity="1.000000" stroke="none" 
	d="
M109.638977,145.048340 
	C109.457504,145.092392 109.152229,144.906525 108.771454,144.455475 
	C108.969025,144.399658 109.242104,144.609039 109.638977,145.048340 
z"/>
</svg>