<svg version="1.1" id="Layer_1" xmlns="http://www.w3.org/2000/svg" xmlns:xlink="http://www.w3.org/1999/xlink" x="0px" y="0px"
	 width="100%" viewBox="0 0 200 200" enable-background="new 0 0 200 200" xml:space="preserve">
<path fill="#FEFEFE" opacity="1.000000" stroke="none" 
	d="
M113.000000,201.000000 
	C75.356575,201.000000 38.213150,201.000000 1.034861,201.000000 
	C1.034861,134.398285 1.034861,67.796532 1.034861,1.097392 
	C67.559921,1.097392 134.120041,1.097392 200.840073,1.097392 
	C200.840073,67.666359 200.840073,134.333145 200.840073,201.000000 
	C171.796814,201.000000 142.648407,201.000000 113.000000,201.000000 
M15.557594,59.205769 
	C15.375266,59.482327 15.192938,59.758881 14.893746,60.505325 
	C14.736599,60.821384 14.483197,61.003555 13.439083,61.071407 
	C8.594293,62.753380 7.200421,67.782005 7.373499,71.222336 
	C7.746252,78.631699 9.768702,86.020607 11.668855,93.273033 
	C13.574176,100.545181 16.163010,107.637634 18.430449,114.815735 
	C19.920774,119.533707 21.372408,124.263901 22.997204,129.899185 
	C21.511389,156.791061 42.118267,179.586838 70.095253,179.529144 
	C90.743416,179.486557 111.392288,179.619751 132.039825,179.500061 
	C150.957413,179.390396 165.124802,171.060181 174.459076,154.508240 
	C178.774887,146.855301 179.017410,138.366730 180.467392,129.646378 
	C180.305603,128.766571 180.143814,127.886757 179.768250,126.349426 
	C179.838898,125.900017 179.909561,125.450615 180.750031,124.905960 
	C182.829971,119.412270 185.136047,113.990967 186.924454,108.403954 
	C188.614838,103.123100 189.972549,97.711784 191.094986,92.279015 
	C192.585709,85.063606 194.243225,77.813271 194.809113,70.499031 
	C195.231140,65.044212 190.835938,59.926273 186.192627,58.992332 
	C185.794662,58.625763 185.396713,58.259190 184.712555,57.456139 
	C184.394257,57.338539 184.075974,57.220943 183.328476,57.074245 
	C183.328476,57.074245 182.986069,56.813824 182.624863,56.390888 
	C182.268799,56.318996 181.912750,56.247105 181.242279,56.244656 
	C181.242279,56.244656 181.009415,56.022305 180.581635,55.472286 
	C179.678375,55.335655 178.775116,55.199024 177.542358,55.080315 
	C177.542358,55.080315 177.212463,55.088383 177.102127,54.334686 
	C170.200012,35.862629 154.099365,23.308558 135.988449,23.082766 
	C112.832611,22.794079 89.667053,22.784288 66.511879,23.103268 
	C48.498196,23.351419 30.620533,37.316669 25.446856,54.336067 
	C25.297451,54.831772 25.148048,55.327477 24.236202,55.901150 
	C21.890768,56.627388 19.545334,57.353626 16.672520,58.201588 
	C16.454185,58.477413 16.235851,58.753242 15.999485,58.999542 
	C15.999485,58.999542 16.028721,59.018021 15.557594,59.205769 
z"/>
<path fill="#DE065F" opacity="1.000000" stroke="none" 
	d="
M14.133542,61.051842 
	C14.483197,61.003555 14.736599,60.821384 15.205841,60.198269 
	C15.688197,59.600147 15.858459,59.309082 16.028721,59.018021 
	C16.028721,59.018021 15.999485,58.999542 16.273838,58.956093 
	C16.765427,58.635052 16.982664,58.357460 17.199902,58.079865 
	C19.545334,57.353626 21.890768,56.627388 24.992374,55.933022 
	C31.689814,56.255463 35.225670,60.295483 38.794445,64.498672 
	C38.817226,64.677635 38.978271,65.000519 38.944954,65.414261 
	C40.874905,73.311462 42.838173,80.794914 44.801437,88.278366 
	C45.320869,88.195969 45.840302,88.113564 46.359730,88.031166 
	C47.830067,83.666283 49.300400,79.301399 50.927834,74.657005 
	C52.134216,73.034523 53.183495,71.691566 54.484657,70.237938 
	C54.955273,69.838257 55.174000,69.549248 55.660446,69.202118 
	C56.255856,68.985710 56.583546,68.827423 57.284992,68.700623 
	C62.164322,66.229477 66.560822,67.899513 71.088776,69.176430 
	C71.207436,69.272797 71.503471,69.349098 71.610565,69.617279 
	C72.175240,70.196236 72.632828,70.507011 73.225693,71.046829 
	C73.795692,71.575623 74.230400,71.875389 74.718506,72.547012 
	C76.491417,77.135429 78.210922,81.351997 79.930428,85.568558 
	C80.388969,85.543739 80.847511,85.518913 81.306061,85.494087 
	C83.066460,77.629288 84.826859,69.764488 86.698845,61.590851 
	C86.842850,60.846855 86.875252,60.411709 87.144783,59.714119 
	C88.401001,56.724098 89.420090,53.996517 90.614281,51.156609 
	C91.005630,50.856464 91.152420,50.624664 91.464058,50.232849 
	C91.873497,49.825207 92.048622,49.533585 92.162781,49.265823 
	C92.101814,49.289680 92.232742,49.272030 92.609940,49.230572 
	C104.950554,44.160755 113.821297,48.847000 115.109924,61.089954 
	C115.161430,61.584698 115.304016,61.817467 115.614899,62.367191 
	C115.742599,63.488613 115.786362,64.241348 115.468910,65.072571 
	C114.760040,65.671059 114.231438,66.146790 114.091797,66.717667 
	C111.863098,75.828705 109.602951,84.933372 107.515709,94.077324 
	C105.247536,104.013916 103.150650,113.989609 100.926178,124.205940 
	C100.779541,124.611870 100.685822,124.760109 100.268723,125.022774 
	C99.676888,126.456711 99.408417,127.776222 99.079292,129.041672 
	C99.018631,128.987610 99.151192,129.083450 98.835594,129.288544 
	C98.073555,132.073318 97.627113,134.653000 97.184860,137.605042 
	C95.425476,144.503540 91.133415,148.462311 85.237602,149.000809 
	C78.986069,149.571793 73.780457,146.493515 70.894081,140.457291 
	C69.340744,137.208801 67.644608,134.034821 63.422363,134.127991 
	C59.614101,134.212006 57.756145,136.680222 56.248081,140.024078 
	C53.320358,146.515823 47.919292,149.558792 41.548889,148.944244 
	C35.572277,148.367691 30.855661,143.665710 29.024912,136.989639 
	C27.548527,131.605789 25.667385,126.332924 23.993652,120.599213 
	C23.474865,117.479683 23.065046,114.735504 22.358723,112.069893 
	C18.637951,98.027954 14.842344,84.005852 11.155809,69.706543 
	C11.217421,69.063248 11.195931,68.690254 11.383479,68.081596 
	C11.665174,67.234505 11.737833,66.623085 11.949137,65.696426 
	C12.769702,63.938072 13.451622,62.494957 14.133542,61.051842 
z"/>
<path fill="#032035" opacity="1.000000" stroke="none" 
	d="
M56.911236,68.669136 
	C56.583546,68.827423 56.255856,68.985710 55.348404,69.225311 
	C54.590019,69.653946 54.411396,70.001274 54.232773,70.348602 
	C53.183495,71.691566 52.134216,73.034523 50.598053,74.735443 
	C48.595406,77.815689 47.079639,80.537971 45.519424,83.340073 
	C43.248585,76.973267 41.113430,70.986893 38.978271,65.000519 
	C38.978271,65.000519 38.817226,64.677635 38.854454,64.121376 
	C37.082062,56.944450 31.476458,55.514114 25.890635,54.056732 
	C30.620533,37.316669 48.498196,23.351419 66.511879,23.103268 
	C89.667053,22.784288 112.832611,22.794079 135.988449,23.082766 
	C154.099365,23.308558 170.200012,35.862629 177.042572,54.672039 
	C176.983002,55.009392 176.754745,55.088760 176.366028,55.036320 
	C172.249435,55.313160 168.338425,55.304951 166.949463,59.942963 
	C166.975922,59.989548 166.888565,59.927490 166.547485,59.985199 
	C164.789963,62.562283 162.966217,64.941948 162.043900,67.630814 
	C160.254669,72.847137 158.972153,78.237274 157.390305,83.873795 
	C155.966949,81.995659 154.884308,80.567116 153.850113,79.072617 
	C153.898560,79.006653 153.815048,79.138008 153.868393,78.820908 
	C153.581345,78.011353 153.240936,77.518883 152.819122,76.876831 
	C152.737701,76.727242 152.698730,76.388870 152.778351,76.021164 
	C151.932388,74.419907 151.006805,73.186348 149.857574,71.838287 
	C149.436691,71.457756 149.239441,71.191734 149.006042,70.570648 
	C144.972473,65.850380 141.255844,64.968010 136.063644,67.083588 
	C136.052795,67.013123 136.112534,67.142624 135.758423,67.073334 
	C134.270432,67.667290 133.136581,68.330544 131.852081,69.087845 
	C131.701462,69.181900 131.354965,69.259804 130.979553,69.198212 
	C127.689964,72.998688 124.775787,76.860764 122.037399,80.489876 
	C121.117111,76.968369 120.014313,72.827835 118.955757,68.676025 
	C117.853638,64.353317 116.914574,59.985264 115.687645,55.699028 
	C113.884338,49.399261 109.276802,46.310913 103.039253,45.572300 
	C98.939117,45.086784 94.844818,45.159203 92.232742,49.272030 
	C92.232742,49.272030 92.101814,49.289680 91.870888,49.304184 
	C91.503220,49.662086 91.366486,50.005482 91.229744,50.348877 
	C91.152420,50.624664 91.005630,50.856464 90.245781,51.182457 
	C87.519119,53.801884 84.889580,56.138992 86.907654,59.976559 
	C86.875252,60.411709 86.842850,60.846855 86.369583,61.702995 
	C85.292465,63.740498 84.489639,65.313316 84.051941,66.981911 
	C82.852890,71.552879 81.807426,76.164131 80.655273,80.950066 
	C78.310516,77.515266 76.487808,74.845215 74.665108,72.175156 
	C74.230400,71.875389 73.795692,71.575623 73.171661,70.737282 
	C72.489380,69.915504 71.996429,69.632301 71.503471,69.349098 
	C71.503471,69.349098 71.207436,69.272797 70.945244,68.827461 
	C66.650436,64.906723 60.438423,65.036179 56.911236,68.669136 
z"/>
<path fill="#DD075F" opacity="1.000000" stroke="none" 
	d="
M149.042191,70.925720 
	C149.239441,71.191734 149.436691,71.457756 149.934799,72.165405 
	C151.056686,73.867653 151.877701,75.128258 152.698730,76.388870 
	C152.698730,76.388870 152.737701,76.727242 152.803619,77.186691 
	C153.184708,78.143440 153.499878,78.640724 153.815048,79.138008 
	C153.815048,79.138008 153.898560,79.006653 153.859848,79.456955 
	C154.789322,82.697281 155.757507,85.487305 157.032898,89.162651 
	C160.605621,78.564751 163.747086,69.246117 166.888550,59.927490 
	C166.888565,59.927490 166.975922,59.989548 167.290405,59.858738 
	C170.654846,58.181541 173.704803,56.635151 176.754745,55.088760 
	C176.754745,55.088760 176.983002,55.009392 177.097733,55.048889 
	C177.212463,55.088383 177.542358,55.080315 177.883698,55.379368 
	C179.153168,55.793049 180.081284,55.907681 181.009415,56.022308 
	C181.009415,56.022305 181.242279,56.244656 181.571198,56.434624 
	C182.262115,56.687668 182.624084,56.750748 182.986069,56.813824 
	C182.986069,56.813824 183.328476,57.074245 183.669037,57.326042 
	C184.339310,57.682766 184.669022,57.787693 184.998749,57.892616 
	C185.396713,58.259190 185.794662,58.625763 186.588806,59.379272 
	C188.359558,62.176689 189.734116,64.587158 191.053665,67.333359 
	C191.099121,68.106880 191.199585,68.544678 191.254028,69.322487 
	C191.244873,70.117325 191.281769,70.572151 191.186340,71.403198 
	C189.225677,78.675812 187.309753,85.550476 185.592209,92.474365 
	C183.651001,100.299950 181.888000,108.169746 179.949966,116.257729 
	C179.765274,116.642380 179.678101,116.789627 179.487518,117.270294 
	C177.260147,124.557693 175.051926,131.487289 173.032669,138.471542 
	C170.254974,148.079041 159.854340,152.218872 151.724167,146.404419 
	C149.078232,144.512131 147.793411,140.819168 145.457825,138.355820 
	C143.780640,136.586899 141.395508,134.406357 139.319870,134.399719 
	C137.204376,134.392960 134.909119,136.622604 133.029236,138.259659 
	C131.990952,139.163803 131.775635,140.948242 130.961014,142.185532 
	C127.909645,146.820053 123.642990,149.473587 118.000412,148.974609 
	C112.923119,148.525604 108.863052,146.226913 106.870773,140.785736 
	C105.815918,137.212936 104.742584,134.046555 103.508194,130.498474 
	C103.247559,128.738861 103.147980,127.360970 103.326065,125.762253 
	C104.416344,123.207626 105.439873,120.923782 106.006416,118.531715 
	C109.084953,105.533646 111.957008,92.485634 115.169830,79.521667 
	C115.587906,77.834702 117.561058,76.533134 118.892319,75.362007 
	C119.011368,76.093468 119.052017,76.515968 119.045128,77.308960 
	C119.365837,78.759537 119.734085,79.839645 120.057556,80.942955 
	C120.012787,80.966156 120.111618,80.947342 120.070908,81.284943 
	C120.338699,82.413353 120.647209,83.204163 121.052429,84.279999 
	C122.182121,83.764351 123.562981,83.171455 124.187042,82.126564 
	C126.703331,77.913483 128.986008,73.560883 131.354965,69.259804 
	C131.354965,69.259804 131.701462,69.181900 132.191727,69.106834 
	C133.825500,68.402054 134.969025,67.772339 136.112534,67.142624 
	C136.112534,67.142624 136.052795,67.013123 136.466797,67.123093 
	C140.934601,68.463943 144.988388,69.694832 149.042191,70.925720 
z"/>
<path fill="#072137" opacity="1.000000" stroke="none" 
	d="
M106.852287,141.192154 
	C108.863052,146.226913 112.923119,148.525604 118.000412,148.974609 
	C123.642990,149.473587 127.909645,146.820053 130.961014,142.185532 
	C131.775635,140.948242 131.990952,139.163803 133.029236,138.259659 
	C134.909119,136.622604 137.204376,134.392960 139.319870,134.399719 
	C141.395508,134.406357 143.780640,136.586899 145.457825,138.355820 
	C147.793411,140.819168 149.078232,144.512131 151.724167,146.404419 
	C159.854340,152.218872 170.254974,148.079041 173.032669,138.471542 
	C175.051926,131.487289 177.260147,124.557693 179.541199,117.723175 
	C179.792252,120.228828 179.886230,122.615013 179.980194,125.001205 
	C179.909561,125.450615 179.838898,125.900017 179.745728,127.040131 
	C179.798370,128.486053 179.873520,129.241257 179.948669,129.996475 
	C179.017410,138.366730 178.774887,146.855301 174.459076,154.508240 
	C165.124802,171.060181 150.957413,179.390396 132.039825,179.500061 
	C111.392288,179.619751 90.743416,179.486557 70.095253,179.529144 
	C42.118267,179.586838 21.511389,156.791061 23.003948,129.009613 
	C23.055716,125.762466 23.100740,123.404869 23.351139,121.046295 
	C23.556513,121.045319 23.965813,121.010826 23.965813,121.010826 
	C25.667385,126.332924 27.548527,131.605789 29.024912,136.989639 
	C30.855661,143.665710 35.572277,148.367691 41.548889,148.944244 
	C47.919292,149.558792 53.320358,146.515823 56.248081,140.024078 
	C57.756145,136.680222 59.614101,134.212006 63.422363,134.127991 
	C67.644608,134.034821 69.340744,137.208801 70.894081,140.457291 
	C73.780457,146.493515 78.986069,149.571793 85.237602,149.000809 
	C91.133415,148.462311 95.425476,144.503540 97.448303,137.334351 
	C98.188774,134.155350 98.669983,131.619400 99.151192,129.083450 
	C99.151192,129.083450 99.018631,128.987610 99.340759,128.837067 
	C99.972618,127.427132 100.282356,126.167740 100.592102,124.908348 
	C100.685822,124.760109 100.779541,124.611870 101.167236,124.378609 
	C101.990280,124.856750 102.519341,125.419914 103.048393,125.983078 
	C103.147980,127.360970 103.247559,128.738861 103.422134,130.857971 
	C104.615509,134.796844 105.733902,137.994507 106.852287,141.192154 
z"/>
<path fill="#F2ECF1" opacity="1.000000" stroke="none" 
	d="
M180.365112,124.953583 
	C179.886230,122.615013 179.792252,120.228828 179.644592,117.389755 
	C179.678101,116.789627 179.765274,116.642380 180.308304,116.182098 
	C181.028305,115.678772 181.460739,115.537468 181.532410,115.291183 
	C184.842834,103.913651 188.318161,92.577629 191.276337,81.108322 
	C192.089890,77.954071 191.347229,74.398430 191.318665,71.026978 
	C191.281769,70.572151 191.244873,70.117325 191.436523,69.153625 
	C191.479599,68.095711 191.294128,67.546669 191.108673,66.997635 
	C189.734116,64.587158 188.359558,62.176689 186.852875,59.447269 
	C190.835938,59.926273 195.231140,65.044212 194.809113,70.499031 
	C194.243225,77.813271 192.585709,85.063606 191.094986,92.279015 
	C189.972549,97.711784 188.614838,103.123100 186.924454,108.403954 
	C185.136047,113.990967 182.829971,119.412270 180.365112,124.953583 
z"/>
<path fill="#F3EDF1" opacity="1.000000" stroke="none" 
	d="
M23.145765,121.047279 
	C23.100740,123.404869 23.055716,125.762466 22.926029,128.554337 
	C21.372408,124.263901 19.920774,119.533707 18.430449,114.815735 
	C16.163010,107.637634 13.574176,100.545181 11.668855,93.273033 
	C9.768702,86.020607 7.746252,78.631699 7.373499,71.222336 
	C7.200421,67.782005 8.594293,62.753380 13.786312,61.061623 
	C13.451622,62.494957 12.769702,63.938072 11.710680,65.912621 
	C11.280533,67.068459 11.227488,67.692863 11.174442,68.317268 
	C11.195931,68.690254 11.217421,69.063248 10.860590,69.965973 
	C10.548282,74.338120 9.979215,78.325157 10.814401,81.992401 
	C12.479786,89.304970 14.799238,96.479057 17.070789,103.639832 
	C18.928310,109.495438 21.108580,115.248665 23.145765,121.047279 
z"/>
<path fill="#3F0F3A" opacity="1.000000" stroke="none" 
	d="
M25.668745,54.196400 
	C31.476458,55.514114 37.082062,56.944450 38.831673,63.942413 
	C35.225670,60.295483 31.689814,56.255463 25.373596,55.894035 
	C25.148048,55.327477 25.297451,54.831772 25.668745,54.196400 
z"/>
<path fill="#F2ECF1" opacity="1.000000" stroke="none" 
	d="
M180.208038,129.821426 
	C179.873520,129.241257 179.798370,128.486053 179.852631,127.368889 
	C180.143814,127.886757 180.305603,128.766571 180.208038,129.821426 
z"/>
<path fill="#F2ECF1" opacity="1.000000" stroke="none" 
	d="
M180.795532,55.747299 
	C180.081284,55.907681 179.153168,55.793049 178.048447,55.370407 
	C178.775116,55.199024 179.678375,55.335655 180.795532,55.747299 
z"/>
<path fill="#F2ECF1" opacity="1.000000" stroke="none" 
	d="
M182.805466,56.602356 
	C182.624084,56.750748 182.262115,56.687668 181.728409,56.399902 
	C181.912750,56.247105 182.268799,56.318996 182.805466,56.602356 
z"/>
<path fill="#F2ECF1" opacity="1.000000" stroke="none" 
	d="
M184.855652,57.674377 
	C184.669022,57.787693 184.339310,57.682766 183.883636,57.340591 
	C184.075974,57.220943 184.394257,57.338539 184.855652,57.674377 
z"/>
<path fill="#F3EDF1" opacity="1.000000" stroke="none" 
	d="
M16.936211,58.140724 
	C16.982664,58.357460 16.765427,58.635052 16.282854,58.970856 
	C16.235851,58.753242 16.454185,58.477413 16.936211,58.140724 
z"/>
<path fill="#F3EDF1" opacity="1.000000" stroke="none" 
	d="
M15.793157,59.111893 
	C15.858459,59.309082 15.688197,59.600147 15.264273,59.963326 
	C15.192938,59.758881 15.375266,59.482327 15.793157,59.111893 
z"/>
<path fill="#B20750" opacity="1.000000" stroke="none" 
	d="
M103.326065,125.762253 
	C102.519341,125.419914 101.990280,124.856750 101.220154,124.120918 
	C103.150650,113.989609 105.247536,104.013916 107.515709,94.077324 
	C109.602951,84.933372 111.863098,75.828705 114.091797,66.717667 
	C114.231438,66.146790 114.760040,65.671059 115.785049,65.290085 
	C117.246246,68.637093 118.030075,71.845070 118.813904,75.053055 
	C117.561058,76.533134 115.587906,77.834702 115.169830,79.521667 
	C111.957008,92.485634 109.084953,105.533646 106.006416,118.531715 
	C105.439873,120.923782 104.416344,123.207626 103.326065,125.762253 
z"/>
<path fill="#ECCEDD" opacity="1.000000" stroke="none" 
	d="
M23.351139,121.046295 
	C21.108580,115.248665 18.928310,109.495438 17.070789,103.639832 
	C14.799238,96.479057 12.479786,89.304970 10.814401,81.992401 
	C9.979215,78.325157 10.548282,74.338120 10.777491,70.236282 
	C14.842344,84.005852 18.637951,98.027954 22.358723,112.069893 
	C23.065046,114.735504 23.474865,117.479683 23.993652,120.599213 
	C23.965813,121.010826 23.556513,121.045319 23.351139,121.046295 
z"/>
<path fill="#3F0F3A" opacity="1.000000" stroke="none" 
	d="
M118.892311,75.362000 
	C118.030075,71.845070 117.246246,68.637093 116.146271,65.211594 
	C115.786362,64.241348 115.742599,63.488613 115.674850,62.151749 
	C115.588600,61.248486 115.410530,61.019184 115.116638,60.879711 
	C113.821297,48.847000 104.950554,44.160755 92.609940,49.230572 
	C94.844818,45.159203 98.939117,45.086784 103.039253,45.572300 
	C109.276802,46.310913 113.884338,49.399261 115.687645,55.699028 
	C116.914574,59.985264 117.853638,64.353317 118.955757,68.676025 
	C120.014313,72.827835 121.117111,76.968369 122.037399,80.489876 
	C124.775787,76.860764 127.689964,72.998688 130.979553,69.198212 
	C128.986008,73.560883 126.703331,77.913483 124.187042,82.126564 
	C123.562981,83.171455 122.182121,83.764351 121.079086,83.946289 
	C120.709892,82.534164 120.410751,81.740753 120.111618,80.947342 
	C120.111618,80.947342 120.012787,80.966156 120.067551,80.585564 
	C119.779099,79.116142 119.435883,78.027306 119.092667,76.938477 
	C119.052017,76.515968 119.011368,76.093468 118.892311,75.362000 
z"/>
<path fill="#3F0F3A" opacity="1.000000" stroke="none" 
	d="
M74.718506,72.547012 
	C76.487808,74.845215 78.310516,77.515266 80.655273,80.950066 
	C81.807426,76.164131 82.852890,71.552879 84.051941,66.981911 
	C84.489639,65.313316 85.292465,63.740498 86.257980,62.011841 
	C84.826859,69.764488 83.066460,77.629288 81.306061,85.494087 
	C80.847511,85.518913 80.388969,85.543739 79.930428,85.568558 
	C78.210922,81.351997 76.491417,77.135429 74.718506,72.547012 
z"/>
<path fill="#3F0F3A" opacity="1.000000" stroke="none" 
	d="
M38.944954,65.414261 
	C41.113430,70.986893 43.248585,76.973267 45.519424,83.340073 
	C47.079639,80.537971 48.595406,77.815689 50.440952,75.014969 
	C49.300400,79.301399 47.830067,83.666283 46.359730,88.031166 
	C45.840302,88.113564 45.320869,88.195969 44.801437,88.278366 
	C42.838173,80.794914 40.874905,73.311462 38.944954,65.414261 
z"/>
<path fill="#3F0F3A" opacity="1.000000" stroke="none" 
	d="
M57.284992,68.700623 
	C60.438423,65.036179 66.650436,64.906723 70.826584,68.731094 
	C66.560822,67.899513 62.164322,66.229477 57.284992,68.700623 
z"/>
<path fill="#3F0F3A" opacity="1.000000" stroke="none" 
	d="
M87.144791,59.714119 
	C84.889580,56.138992 87.519119,53.801884 90.070679,51.294785 
	C89.420090,53.996517 88.401001,56.724098 87.144791,59.714119 
z"/>
<path fill="#B20750" opacity="1.000000" stroke="none" 
	d="
M98.835594,129.288544 
	C98.669983,131.619400 98.188774,134.155350 97.444107,136.961990 
	C97.627113,134.653000 98.073555,132.073318 98.835594,129.288544 
z"/>
<path fill="#B20750" opacity="1.000000" stroke="none" 
	d="
M100.268723,125.022774 
	C100.282356,126.167740 99.972618,127.427132 99.401413,128.891129 
	C99.408417,127.776222 99.676888,126.456711 100.268723,125.022774 
z"/>
<path fill="#ECCEDD" opacity="1.000000" stroke="none" 
	d="
M11.383479,68.081596 
	C11.227488,67.692863 11.280533,67.068459 11.572035,66.227859 
	C11.737833,66.623085 11.665174,67.234505 11.383479,68.081596 
z"/>
<path fill="#3F0F3A" opacity="1.000000" stroke="none" 
	d="
M71.610565,69.617279 
	C71.996429,69.632301 72.489380,69.915504 73.036377,70.508240 
	C72.632828,70.507011 72.175240,70.196236 71.610565,69.617279 
z"/>
<path fill="#3F0F3A" opacity="1.000000" stroke="none" 
	d="
M91.464058,50.232849 
	C91.366486,50.005482 91.503220,49.662086 91.931854,49.280327 
	C92.048622,49.533585 91.873497,49.825207 91.464058,50.232849 
z"/>
<path fill="#3F0F3A" opacity="1.000000" stroke="none" 
	d="
M54.484657,70.237930 
	C54.411396,70.001274 54.590019,69.653946 55.080681,69.283432 
	C55.174000,69.549248 54.955273,69.838257 54.484657,70.237930 
z"/>
<path fill="#B20750" opacity="1.000000" stroke="none" 
	d="
M115.109924,61.089954 
	C115.410530,61.019184 115.588600,61.248486 115.590912,61.783058 
	C115.304016,61.817467 115.161430,61.584698 115.109924,61.089954 
z"/>
<path fill="#3F0F3A" opacity="1.000000" stroke="none" 
	d="
M166.547470,59.985195 
	C163.747086,69.246117 160.605621,78.564751 157.032898,89.162651 
	C155.757507,85.487305 154.789322,82.697281 153.811401,79.522919 
	C154.884308,80.567116 155.966949,81.995659 157.390305,83.873795 
	C158.972153,78.237274 160.254669,72.847137 162.043900,67.630814 
	C162.966217,64.941948 164.789963,62.562283 166.547470,59.985195 
z"/>
<path fill="#3F0F3A" opacity="1.000000" stroke="none" 
	d="
M149.006042,70.570656 
	C144.988388,69.694832 140.934601,68.463943 136.477646,67.193558 
	C141.255844,64.968010 144.972473,65.850380 149.006042,70.570656 
z"/>
<path fill="#3F0F3A" opacity="1.000000" stroke="none" 
	d="
M176.366028,55.036324 
	C173.704803,56.635151 170.654846,58.181541 167.263947,59.812157 
	C168.338425,55.304951 172.249435,55.313160 176.366028,55.036324 
z"/>
<path fill="#3F0F3A" opacity="1.000000" stroke="none" 
	d="
M152.778351,76.021164 
	C151.877701,75.128258 151.056686,73.867653 150.158432,72.279915 
	C151.006805,73.186348 151.932388,74.419907 152.778351,76.021164 
z"/>
<path fill="#3F0F3A" opacity="1.000000" stroke="none" 
	d="
M135.758423,67.073334 
	C134.969025,67.772339 133.825500,68.402054 132.342346,69.012787 
	C133.136581,68.330544 134.270432,67.667290 135.758423,67.073334 
z"/>
<path fill="#3F0F3A" opacity="1.000000" stroke="none" 
	d="
M153.868393,78.820908 
	C153.499878,78.640724 153.184708,78.143440 152.885040,77.336288 
	C153.240936,77.518883 153.581345,78.011353 153.868393,78.820908 
z"/>
<path fill="#EEC9DB" opacity="1.000000" stroke="none" 
	d="
M191.186340,71.403198 
	C191.347229,74.398430 192.089890,77.954071 191.276337,81.108322 
	C188.318161,92.577629 184.842834,103.913651 181.532410,115.291183 
	C181.460739,115.537468 181.028305,115.678772 180.405838,115.944687 
	C181.888000,108.169746 183.651001,100.299950 185.592209,92.474365 
	C187.309753,85.550476 189.225677,78.675812 191.186340,71.403198 
z"/>
<path fill="#B20750" opacity="1.000000" stroke="none" 
	d="
M106.870773,140.785736 
	C105.733902,137.994507 104.615509,134.796844 103.583183,131.239685 
	C104.742584,134.046555 105.815918,137.212936 106.870773,140.785736 
z"/>
<path fill="#B20750" opacity="1.000000" stroke="none" 
	d="
M119.045135,77.308960 
	C119.435883,78.027306 119.779099,79.116142 120.112320,80.562363 
	C119.734085,79.839645 119.365837,78.759537 119.045135,77.308960 
z"/>
<path fill="#B20750" opacity="1.000000" stroke="none" 
	d="
M120.070908,81.284943 
	C120.410751,81.740753 120.709892,82.534164 120.982376,83.661270 
	C120.647209,83.204163 120.338699,82.413353 120.070908,81.284943 
z"/>
<path fill="#EEC9DB" opacity="1.000000" stroke="none" 
	d="
M191.053665,67.333359 
	C191.294128,67.546669 191.479599,68.095711 191.482559,68.813614 
	C191.199585,68.544678 191.099121,68.106880 191.053665,67.333359 
z"/>
</svg>