<svg version="1.1" id="Layer_1" xmlns="http://www.w3.org/2000/svg" xmlns:xlink="http://www.w3.org/1999/xlink" x="0px" y="0px"
	 width="100%" viewBox="0 0 2900 100" enable-background="new 0 0 2900 100" xml:space="preserve">
<path fill="#000000" opacity="1.000000" stroke="none" 
	d="
M2748.000000,101.000000 
	C1832.000000,101.000000 916.500000,101.000000 1.000000,101.000000 
	C1.000000,67.666664 1.000000,34.333332 1.000000,1.000000 
	C967.666687,1.000000 1934.333374,1.000000 2901.000000,1.000000 
	C2901.000000,34.333332 2901.000000,67.666664 2901.000000,101.000000 
	C2850.166748,101.000000 2799.333252,101.000000 2748.000000,101.000000 
M771.691345,29.083767 
	C771.819580,29.247065 771.979675,29.368237 772.591431,30.028471 
	C779.784729,37.292007 780.554749,46.388248 779.379761,56.183289 
	C779.190796,57.664181 778.794678,59.156517 778.875610,60.622482 
	C778.945435,61.884888 779.250366,63.391853 780.033875,64.272362 
	C780.616699,64.927429 782.427856,65.253845 783.155151,64.822197 
	C784.059937,64.285202 784.584900,62.873596 784.955872,61.735985 
	C785.346375,60.538342 785.427002,59.223171 785.521973,57.950329 
	C785.614990,56.704300 785.954590,54.578442 785.485596,54.362907 
	C784.248230,53.794353 782.630920,54.052593 781.024414,53.070850 
	C780.582825,47.586105 780.141235,42.101357 779.725098,36.933083 
	C780.964233,35.884525 782.647949,34.819267 783.736755,33.321556 
	C784.067749,32.866150 782.949951,30.448961 782.164734,30.252417 
	C779.208496,29.512407 776.115784,29.317553 772.931641,28.427984 
	C772.647644,28.260021 772.363708,28.092058 771.931335,27.426212 
	C771.544312,27.085270 771.157349,26.744326 770.309326,25.869808 
	C766.552612,23.869514 762.795959,21.869219 759.009277,19.014208 
	C758.947266,17.758703 758.885254,16.503201 758.837463,15.535524 
	C756.352600,14.972224 754.350403,14.327925 752.304871,14.127904 
	C751.126160,14.012638 749.246887,14.249321 748.817993,14.987287 
	C748.270081,15.930050 748.867065,17.538235 748.154541,18.980167 
	C742.467896,21.306288 736.781311,23.632410 730.971252,25.238283 
	C730.954163,25.075584 730.997864,24.821651 730.911011,24.763842 
	C729.531250,23.845757 728.134766,22.952782 726.742126,22.054092 
	C725.164246,24.561665 723.324158,26.959528 722.196472,29.655424 
	C721.920959,30.314205 723.980774,31.949743 724.724731,33.818108 
	C723.479919,38.733471 722.185791,43.637138 721.013855,48.569809 
	C720.526489,50.621368 720.299622,52.734848 719.980835,54.028442 
	C719.334900,52.376099 718.688965,50.723759 718.043030,49.071415 
	C716.749084,49.917271 715.455139,50.763123 714.161194,51.608967 
	C715.123169,52.804855 716.085144,54.000744 717.005127,55.915619 
	C715.907837,59.418755 717.226868,61.169613 720.598633,60.775471 
	C721.645752,60.653072 722.719238,60.756424 723.782593,60.756424 
	C723.254150,58.251518 722.437622,55.327499 722.048035,52.347660 
	C721.079346,44.938911 723.602234,38.331406 727.028381,32.001953 
	C727.028381,32.001953 727.024048,32.086407 727.621948,31.888796 
	C728.553467,30.822924 729.484985,29.757051 730.636108,28.642225 
	C730.636108,28.642225 730.679199,28.421368 731.262695,28.136854 
	C737.615723,22.039240 745.429382,19.940260 754.596558,20.089727 
	C755.389587,20.340385 756.182617,20.591043 757.739990,20.989227 
	C761.800537,23.022861 765.861023,25.056494 770.136475,27.659649 
	C770.603210,28.047211 771.070007,28.434772 771.691345,29.083767 
M763.004028,78.786316 
	C763.953552,79.979218 764.903137,81.172112 765.935974,82.469574 
	C768.258118,80.165756 771.086853,78.508842 767.242554,75.256935 
	C768.567627,74.206612 769.892761,73.156296 771.217834,72.105972 
	C771.086548,71.973793 770.955322,71.841614 770.824097,71.709435 
	C767.883484,73.092842 764.942871,74.476242 761.645386,75.213570 
	C759.725647,75.988434 757.805847,76.763290 755.886108,77.538147 
	C758.528748,79.937248 760.929871,83.289650 762.544189,78.026901 
	C762.544189,78.026901 762.946289,78.075691 763.004028,78.786316 
M625.005737,34.742706 
	C623.723389,39.825230 622.441040,44.907749 620.895752,50.623524 
	C620.943604,52.029202 620.991455,53.434875 620.338501,55.182091 
	C617.963989,59.550320 623.025146,60.083996 624.375122,62.465733 
	C626.577820,66.351768 629.983154,69.556107 633.008484,73.778236 
	C634.069702,75.059631 634.898071,76.786911 636.257751,77.496658 
	C637.610352,78.202744 639.496582,77.886650 641.990601,78.005257 
	C649.183167,79.317764 656.369080,80.556740 663.703064,75.794930 
	C670.601074,73.470726 674.926147,68.447136 678.697510,61.825783 
	C679.647278,60.490871 680.398682,58.934490 681.588928,57.867973 
	C683.938904,55.762333 683.233032,54.285145 681.002319,51.974068 
	C680.654724,48.404091 681.381653,44.194389 679.721497,41.405869 
	C676.837463,36.561619 679.915161,27.692635 670.583557,27.032583 
	C670.449402,27.023092 670.343811,26.797642 670.198425,26.730217 
	C665.467651,24.536974 660.733643,22.350771 655.232605,20.005075 
	C649.173828,17.713270 637.013794,21.322830 631.106934,26.989407 
	C629.641968,27.664297 628.237366,28.581450 626.699768,28.965048 
	C623.201294,29.837811 623.539734,31.664965 625.005737,34.742706 
M470.470184,27.984018 
	C458.701538,17.209770 438.567078,18.975910 429.422577,30.131424 
	C418.815704,43.070892 419.611542,59.808506 431.377716,70.549278 
	C443.564362,81.673813 460.172028,80.763931 471.195099,70.018738 
	C483.021027,58.490959 482.814392,40.717636 470.470184,27.984018 
M359.183838,75.992722 
	C373.466034,70.776375 380.271362,59.108841 378.048950,44.339039 
	C375.564819,27.830303 357.761566,17.576313 341.570953,23.285761 
	C331.300201,26.907629 320.669464,38.778519 323.868195,54.918259 
	C326.919067,70.312004 343.737610,81.026237 359.183838,75.992722 
M269.534973,36.008068 
	C264.258392,28.502815 257.023590,26.086966 248.033661,26.897293 
	C238.499695,27.756662 232.620285,33.115280 229.437531,41.387905 
	C226.044800,50.206268 227.848587,58.854496 234.434799,65.468636 
	C240.667526,71.727783 248.639694,73.465645 257.561798,71.201065 
	C271.145325,67.753349 279.355255,50.502373 269.534973,36.008068 
M525.935181,34.497112 
	C520.662476,43.258282 520.269592,52.588913 524.370239,61.602921 
	C532.805603,80.145531 557.805908,84.923172 572.280701,69.364471 
	C580.747009,60.264145 582.033203,49.892811 578.280334,38.998032 
	C573.908936,26.307545 564.079712,20.816378 552.469971,20.127211 
	C541.270996,19.462423 532.308594,24.274967 525.935181,34.497112 
M1137.046021,56.230927 
	C1139.814209,59.101055 1142.285645,62.377487 1145.457520,64.695168 
	C1147.492920,66.182449 1151.327759,67.661644 1153.035889,66.728371 
	C1161.588501,62.055439 1167.650513,55.007336 1168.908691,44.928829 
	C1169.427612,40.771946 1167.669434,37.363338 1163.669189,35.238216 
	C1159.690796,33.124683 1156.454102,33.850735 1153.478149,37.003792 
	C1152.720459,37.806519 1151.768921,38.426113 1150.849487,39.176289 
	C1150.019653,38.415627 1149.407593,37.865490 1148.807495,37.302727 
	C1143.150391,31.998009 1137.046631,33.191803 1133.931763,40.279423 
	C1131.416870,46.001728 1134.452637,50.705658 1137.046021,56.230927 
M1251.368774,38.883030 
	C1250.791016,38.629517 1250.072021,38.516418 1249.657715,38.100193 
	C1246.466797,34.894363 1243.030884,32.501469 1238.440063,35.272865 
	C1233.925293,37.998394 1232.764038,42.203514 1233.862915,47.952446 
	C1235.410156,56.047523 1241.152954,60.949474 1246.834717,65.918701 
	C1249.461304,68.215958 1252.804443,68.374550 1255.130859,65.871063 
	C1259.558716,61.106106 1264.303589,56.331024 1267.411255,50.725433 
	C1270.875122,44.477345 1268.747803,38.428463 1263.542847,35.262287 
	C1258.653931,32.288399 1255.228638,35.204082 1251.368774,38.883030 
M1334.000244,45.475952 
	C1334.923462,53.409431 1338.733276,59.698689 1345.384521,63.971161 
	C1347.587036,65.385941 1351.126587,66.923180 1353.100342,66.104080 
	C1361.161621,62.758621 1365.516479,55.730297 1367.845459,47.672691 
	C1369.249878,42.813793 1367.419800,38.153645 1362.953613,35.719048 
	C1358.936768,33.529388 1354.995972,35.100544 1351.901855,38.483921 
	C1351.627441,38.783989 1351.036499,38.794544 1350.484131,38.974934 
	C1347.620483,35.230225 1343.481445,33.639042 1339.512939,35.438808 
	C1336.225586,36.929695 1333.511597,40.173866 1334.000244,45.475952 
M1035.056274,39.954277 
	C1034.706055,41.868469 1033.803589,43.872810 1034.098877,45.681679 
	C1035.598877,54.871746 1041.221313,61.369511 1048.828003,66.133492 
	C1050.171509,66.974968 1053.320923,66.632538 1054.604492,65.579315 
	C1060.481812,60.756516 1066.197021,55.377914 1067.506348,47.537472 
	C1068.023682,44.439247 1066.670044,40.421722 1064.823364,37.753716 
	C1063.636353,36.038719 1059.949219,35.294235 1057.472168,35.458950 
	C1055.271851,35.605282 1053.194580,37.604027 1051.015381,38.811504 
	C1042.784912,33.570789 1040.881470,33.611858 1035.056274,39.954277 
M1454.880615,64.668900 
	C1461.021240,61.291630 1464.853882,55.597496 1466.564819,49.381016 
	C1468.808105,41.230476 1465.715698,35.061882 1456.871094,36.162514 
	C1454.731079,36.428829 1452.826538,38.588184 1450.697144,39.951717 
	C1450.230469,39.561665 1449.629272,39.222454 1449.250977,38.716625 
	C1446.731201,35.347969 1443.399170,35.324715 1439.929199,36.609188 
	C1436.187256,37.994308 1435.052124,40.996220 1434.941284,44.842434 
	C1434.754395,51.330460 1438.227539,56.103508 1442.148682,60.500397 
	C1445.235962,63.962036 1448.609985,67.885353 1454.880615,64.668900 
M1551.992188,39.461540 
	C1550.750122,38.995491 1549.434082,38.666245 1548.278198,38.040806 
	C1541.763184,34.515545 1536.021118,37.758255 1536.009766,45.074322 
	C1535.994751,54.769135 1541.716064,60.678108 1549.520630,65.085213 
	C1550.285889,65.517372 1551.679077,65.486053 1552.491455,65.084450 
	C1559.291870,61.722080 1564.210693,56.385117 1565.679932,49.003399 
	C1566.335815,45.707436 1565.518311,40.988880 1563.445312,38.554779 
	C1560.630371,35.249805 1556.118408,36.133137 1551.992188,39.461540 
M1662.111206,55.502796 
	C1663.058960,53.638145 1664.218384,51.848663 1664.912598,49.894005 
	C1666.642456,45.023319 1665.421875,39.959381 1662.121826,38.048927 
	C1657.550903,35.402847 1654.187256,38.084743 1650.956055,40.876026 
	C1644.684326,34.862591 1638.417358,35.911556 1636.370972,43.471512 
	C1635.822021,45.499596 1636.404663,48.036926 1637.067871,50.152367 
	C1639.131714,56.736088 1643.467041,62.129131 1649.628174,64.520401 
	C1655.076782,66.635201 1657.432373,60.217674 1661.044556,57.402782 
	C1661.421143,57.109356 1661.650391,56.626869 1662.111206,55.502796 
M2663.947510,52.227650 
	C2664.529297,49.592636 2666.013184,46.776062 2665.526123,44.356224 
	C2663.994873,36.749146 2658.225830,35.528084 2650.937256,40.880329 
	C2644.619873,35.981220 2641.573975,35.839172 2638.055664,40.507431 
	C2634.636475,45.045048 2636.332520,49.387531 2638.917969,53.581852 
	C2647.580322,67.634300 2653.356934,68.030212 2662.415527,55.042717 
	C2662.877441,54.380447 2663.198730,53.619972 2663.947510,52.227650 
M2760.555664,57.919594 
	C2761.929199,55.520531 2763.599609,53.235802 2764.581055,50.685932 
	C2765.358643,48.665783 2765.962891,46.159031 2765.479492,44.148361 
	C2763.698730,36.742836 2758.688965,35.736805 2750.506104,41.009251 
	C2747.770996,38.018902 2744.677979,35.291924 2740.418701,38.311901 
	C2737.156006,40.625225 2734.999756,43.791218 2736.550537,47.993710 
	C2737.605469,50.853191 2738.933838,53.723305 2740.697021,56.190521 
	C2747.932373,66.315331 2752.049316,67.432777 2760.555664,57.919594 
M2552.615479,64.079315 
	C2558.412354,61.850491 2561.537598,57.049488 2563.959717,51.792118 
	C2565.000000,49.533909 2565.956787,46.740757 2565.576416,44.415638 
	C2564.348633,36.910599 2558.086670,35.515083 2551.010742,40.880249 
	C2544.509766,35.996830 2542.205811,35.842781 2538.425049,40.071472 
	C2536.021729,42.759132 2536.025635,45.700523 2536.932617,49.093304 
	C2538.940186,56.601921 2545.606934,63.654381 2552.615479,64.079315 
M45.599651,62.051815 
	C51.697330,65.578766 52.870434,65.457870 57.704700,60.795246 
	C58.183662,60.333290 58.798031,59.935642 59.095512,59.373669 
	C61.414875,54.992149 64.491425,50.769997 65.589966,46.089283 
	C66.110588,43.870968 63.384148,40.067753 61.123138,38.199883 
	C57.081440,34.860943 54.011017,38.604877 51.258858,41.086136 
	C50.675884,40.821323 50.317051,40.758759 50.107441,40.547874 
	C47.452576,37.876869 44.646339,35.430576 40.729870,38.113827 
	C37.096725,40.602962 34.767296,44.004486 37.063412,48.432014 
	C39.416222,52.968861 42.368580,57.194778 45.599651,62.051815 
M945.138916,37.068169 
	C939.316040,37.739697 934.913574,42.031918 936.325928,46.452980 
	C937.681702,50.696842 939.437744,55.199715 942.277588,58.507221 
	C949.646301,67.089432 952.819641,66.538742 960.179688,58.056076 
	C962.603577,55.262497 963.576904,51.187351 965.117737,47.656429 
	C967.017456,43.303112 964.600464,40.473129 961.380981,38.190006 
	C958.047974,35.826408 955.212830,37.232254 952.658813,39.806164 
	C952.126770,40.342361 951.386475,40.672012 950.981628,40.938934 
	C949.059265,39.601521 947.453125,38.484127 945.138916,37.068169 
M2464.077637,40.615788 
	C2458.957764,35.774879 2458.491699,35.784126 2450.611816,40.963291 
	C2447.750977,38.234932 2444.814453,35.299915 2440.428955,38.257259 
	C2436.118652,41.163864 2435.027832,45.548790 2437.209473,49.750462 
	C2439.643066,54.437958 2443.109375,58.665508 2446.597656,62.684109 
	C2447.676514,63.926956 2450.552979,64.689201 2452.168213,64.206352 
	C2460.728516,61.647301 2467.063965,49.567451 2464.077637,40.615788 
M2862.051758,55.428371 
	C2862.924805,53.868832 2864.004395,52.387936 2864.633789,50.735718 
	C2866.922607,44.726173 2865.370117,40.538738 2860.649414,37.855824 
	C2856.039551,35.236092 2853.923584,39.550957 2850.740967,41.066044 
	C2849.915771,40.314171 2849.276123,39.242931 2848.445557,39.066086 
	C2845.956787,38.536087 2842.570557,37.211441 2841.050293,38.304577 
	C2838.727539,39.975159 2836.119873,43.569485 2836.377441,46.063652 
	C2837.083984,52.906216 2841.028564,58.506416 2846.505371,62.784126 
	C2849.531494,65.147682 2852.862549,65.162010 2855.719238,62.604908 
	C2857.895752,60.656471 2859.625000,58.208618 2862.051758,55.428371 
M2350.624268,40.881474 
	C2347.849854,38.731850 2345.566895,35.490265 2341.178711,37.905613 
	C2336.846191,40.290375 2335.766846,43.967575 2337.107910,48.156479 
	C2338.273193,51.795174 2339.763428,55.685551 2342.223633,58.486816 
	C2349.496094,66.767342 2352.437744,66.625038 2359.927979,58.435104 
	C2361.758545,56.433434 2363.501465,53.862312 2364.042480,51.291626 
	C2364.749756,47.927822 2365.268311,43.851711 2363.988525,40.895531 
	C2361.917725,36.111397 2356.478027,36.424915 2350.624268,40.881474 
M2255.013916,62.520142 
	C2258.269287,58.544842 2262.334961,54.974277 2264.573486,50.491207 
	C2267.331299,44.967861 2264.362061,38.501171 2259.313965,37.906143 
	C2256.548584,37.580200 2253.536377,39.348331 2250.050293,40.338459 
	C2248.024902,38.049084 2244.802246,36.230907 2240.880127,38.132645 
	C2236.744141,40.138062 2236.551514,44.166271 2237.062256,47.999100 
	C2237.910645,54.365818 2241.849365,58.748718 2246.839111,62.518284 
	C2249.491455,64.522057 2251.727051,65.694901 2255.013916,62.520142 
M1741.913208,57.613132 
	C1747.174194,65.308876 1751.602783,66.448494 1757.419800,60.874546 
	C1760.299316,58.115505 1762.698730,54.554523 1764.390259,50.925156 
	C1767.101929,45.107208 1764.534424,38.543381 1759.296265,37.898102 
	C1756.538818,37.558399 1753.518677,39.352486 1750.052002,40.344826 
	C1748.012817,38.023602 1744.777588,36.225445 1740.861938,38.136478 
	C1736.737549,40.149319 1736.303345,44.267982 1737.159058,47.990372 
	C1737.888062,51.162289 1739.988892,54.018909 1741.913208,57.613132 
M2139.888672,54.516220 
	C2140.700684,55.922474 2141.390137,57.418819 2142.345459,58.719528 
	C2146.734619,64.693695 2151.053223,65.757347 2156.599854,60.899448 
	C2160.081543,57.850285 2163.107422,53.525761 2164.638916,49.175404 
	C2167.178711,41.961880 2162.632568,36.754379 2155.778809,38.105911 
	C2154.010986,38.454521 2152.463135,39.919453 2150.619629,40.984085 
	C2147.758301,37.391922 2144.102295,36.964924 2140.144043,38.994404 
	C2135.981201,41.128838 2136.883545,45.148197 2137.151855,48.633957 
	C2137.291016,50.444309 2138.600098,52.164680 2139.888672,54.516220 
M1864.998413,47.243027 
	C1863.982056,44.490837 1863.743408,40.763103 1861.780518,39.198299 
	C1858.174561,36.323463 1854.071289,37.805820 1850.835449,41.295044 
	C1847.863281,37.533390 1844.468750,37.104553 1840.517578,38.841709 
	C1836.307251,40.692810 1836.606323,44.439060 1837.107178,47.740299 
	C1838.195923,54.916237 1843.372559,59.540115 1848.723389,63.678997 
	C1849.802124,64.513405 1852.971313,64.053261 1854.209106,63.025200 
	C1859.031006,59.019817 1863.539429,54.599598 1864.998413,47.243027 
M2064.991455,48.083614 
	C2065.003662,39.898109 2062.565674,37.022038 2056.057617,38.106319 
	C2054.141357,38.425583 2052.424072,39.941120 2050.518311,40.960464 
	C2047.357300,36.947811 2043.174561,36.809536 2039.538696,39.391800 
	C2035.842896,42.016598 2035.916382,46.594742 2037.852173,50.151829 
	C2040.167969,54.407261 2043.408569,58.208382 2046.555786,61.947754 
	C2049.319580,65.231499 2052.735107,65.256660 2055.442871,61.935265 
	C2058.834717,57.774925 2061.801270,53.267925 2064.991455,48.083614 
M1958.500122,58.999977 
	C1959.206421,58.297424 1960.188965,57.719189 1960.570923,56.870682 
	C1962.146484,53.369637 1964.282227,49.876495 1964.727539,46.200615 
	C1965.003906,43.918751 1963.108765,39.767426 1961.313965,39.194664 
	C1958.134521,38.179886 1954.289062,39.251480 1951.154785,39.425968 
	C1947.539551,39.112320 1944.050415,38.063354 1941.026367,38.835503 
	C1939.294312,39.277718 1937.612305,42.533287 1937.146484,44.779198 
	C1936.135254,49.653141 1938.706787,53.757843 1941.794067,57.202866 
	C1949.496704,65.798256 1951.490723,65.977676 1958.500122,58.999977 
M847.502075,40.899769 
	C843.519531,39.153187 841.020508,41.168209 840.125305,44.653164 
	C838.640991,50.431778 844.182800,59.523472 849.925415,61.382168 
	C850.687073,61.628666 852.031738,61.552475 852.477966,61.058262 
	C855.713562,57.474747 859.398560,54.074684 861.640625,49.915405 
	C862.671692,48.002533 861.515320,43.992958 860.024353,41.862324 
	C858.003174,38.973953 854.998657,39.983150 852.251587,42.008240 
	C851.536133,42.535637 849.609314,41.419689 847.502075,40.899769 
M758.130493,45.557396 
	C756.522278,44.202080 745.742737,43.206192 744.423096,44.298237 
	C744.299927,44.400162 744.240906,44.575790 744.130005,44.696938 
	C742.000000,47.023548 742.913330,51.964020 746.419434,55.765755 
	C748.849426,58.400566 752.155396,59.091381 754.661743,56.524834 
	C757.289246,53.834091 760.188477,50.699055 758.130493,45.557396 
M729.377991,78.899445 
	C732.729675,80.104042 736.081421,81.308632 739.423218,82.509666 
	C741.507812,76.016838 736.448792,75.609108 733.811707,74.295685 
	C731.351318,73.070282 729.184509,75.087173 729.377991,78.899445 
M854.607483,13.963457 
	C853.364380,14.655392 852.121277,15.347326 850.422241,16.293060 
	C860.150391,18.480335 860.150391,18.480335 859.391418,12.943440 
	C857.991577,13.073951 856.574158,13.206093 854.607483,13.963457 
M885.937256,33.236614 
	C885.195984,31.831711 884.673340,30.201353 883.589294,29.149788 
	C883.232056,28.803297 880.904968,29.656065 880.421570,30.500341 
	C879.917847,31.380068 880.311829,33.879547 880.731995,33.983799 
	C882.236755,34.357178 883.918823,34.015808 885.937256,33.236614 
M827.936768,25.543940 
	C828.004944,23.928837 828.342896,22.246588 827.968201,20.741751 
	C827.863220,20.320141 825.379761,19.926010 824.500488,20.424442 
	C823.660156,20.900770 822.805908,23.214964 823.148438,23.568832 
	C824.202209,24.657497 825.826111,25.194258 827.936768,25.543940 
M814.446167,49.154495 
	C813.397766,50.725155 812.349304,52.295815 811.300903,53.866478 
	C811.765320,54.392792 812.229797,54.919109 812.694214,55.445427 
	C814.425415,54.739819 816.156677,54.034206 817.887878,53.328583 
	C817.002808,51.924603 816.117737,50.520622 814.446167,49.154495 
M887.002197,64.880928 
	C886.772827,63.531799 886.834778,62.013870 886.191711,60.904484 
	C885.868774,60.347198 883.515564,60.150196 883.364075,60.446472 
	C882.568848,62.001842 882.184143,63.767075 881.443115,66.144836 
	C883.909180,65.913208 885.325439,65.780174 887.002197,64.880928 
M926.062866,81.201286 
	C927.738098,81.909645 929.413391,82.617996 931.088623,83.326340 
	C931.051453,81.724098 931.645508,79.294128 930.849426,78.687119 
	C929.037720,77.305626 926.787659,77.455818 926.062866,81.201286 
M828.549927,76.972267 
	C828.463074,78.539955 828.376282,80.107651 828.289490,81.675339 
	C829.717468,81.694382 831.218323,81.970451 832.535278,81.597504 
	C833.016968,81.461082 833.565796,79.230446 833.214905,78.911682 
	C832.055237,77.858017 830.498840,77.240952 828.549927,76.972267 
M1028.618896,79.028046 
	C1027.551880,80.298813 1026.379150,81.506065 1025.536255,82.911263 
	C1025.414917,83.113556 1026.811401,84.733101 1027.634277,84.859779 
	C1028.553467,85.001297 1030.485474,84.156868 1030.472290,83.796165 
	C1030.415161,82.220924 1029.811646,80.665512 1028.618896,79.028046 
M986.993103,29.496134 
	C985.600769,29.239477 984.138794,28.643507 982.853333,28.907434 
	C982.394104,29.001719 981.850891,31.419218 982.283569,32.331776 
	C982.689758,33.188526 984.990051,34.158817 985.311462,33.857483 
	C986.340271,32.892796 986.837646,31.361345 986.993103,29.496134 
M910.059021,53.281010 
	C911.598999,53.753735 913.122009,54.395111 914.693604,54.553913 
	C915.000305,54.584896 916.100769,52.389462 915.778625,51.837318 
	C915.117615,50.704220 913.741028,49.988586 912.659058,49.101059 
	C911.775391,50.226280 910.891724,51.351501 910.059021,53.281010 
M1085.059937,63.743248 
	C1085.613159,65.136703 1086.166260,66.530167 1086.719482,67.923653 
	C1087.957275,67.298439 1089.423462,66.893799 1090.332886,65.951637 
	C1090.764526,65.504623 1090.314697,63.246014 1089.951172,63.161995 
	C1088.524536,62.832230 1086.973267,63.041382 1085.059937,63.743248 
M986.467468,66.991760 
	C987.301208,65.677200 988.329590,64.430687 988.829895,62.999577 
	C988.952820,62.648117 987.255432,61.057079 986.565552,61.161667 
	C985.444336,61.331665 983.532837,62.556763 983.608276,63.111637 
	C983.793518,64.473366 984.921875,65.706795 986.467468,66.991760 
M1009.891235,54.934994 
	C1012.328918,55.237026 1014.430054,54.708462 1013.851685,51.759777 
	C1013.648193,50.722206 1011.474487,49.084202 1010.698669,49.325096 
	C1008.047852,50.148167 1007.663574,52.232574 1009.891235,54.934994 
M922.088013,19.766321 
	C922.088013,21.050409 922.088013,22.334497 922.088013,23.992949 
	C923.370178,23.992949 924.533203,24.334211 925.245300,23.912998 
	C926.315674,23.279877 927.070190,22.112738 927.959045,21.172674 
	C926.190063,20.485765 924.421082,19.798859 922.088013,19.766321 
M1126.018311,80.509888 
	C1126.249390,82.311218 1126.480469,84.112549 1126.711548,85.913826 
	C1127.787109,85.355225 1129.591797,84.989998 1129.800903,84.201561 
	C1130.411865,81.898262 1129.904907,79.800560 1126.018311,80.509888 
M863.006348,80.411110 
	C861.967468,79.298553 861.021423,78.053368 859.801514,77.199409 
	C859.589600,77.050995 857.612549,78.500481 857.540100,79.309471 
	C857.448975,80.326408 858.356567,82.234665 859.052856,82.342766 
	C860.265076,82.530937 861.645508,81.635384 863.006348,80.411110 
M151.394684,47.017593 
	C150.278564,47.894451 149.162460,48.771309 148.046341,49.648167 
	C148.766525,50.414120 149.433014,51.736038 150.219818,51.811993 
	C151.321640,51.918365 152.513062,51.096703 153.666153,50.672050 
	C153.174286,49.476265 152.682419,48.280476 151.394684,47.017593 
M1086.397827,28.014931 
	C1085.262573,28.843054 1084.127197,29.671179 1082.991943,30.499334 
	C1083.641235,31.318092 1084.193481,32.688202 1084.963135,32.823708 
	C1086.061157,33.017002 1087.318481,32.305370 1088.507568,31.980270 
	C1088.074219,30.669353 1087.640869,29.358437 1086.397827,28.014931 
M1021.720764,18.095062 
	C1020.495361,20.306036 1020.479309,22.393028 1023.358704,22.823095 
	C1024.382812,22.976038 1025.673950,21.341646 1026.843140,20.523178 
	C1025.413818,19.684679 1023.984619,18.846180 1021.720764,18.095062 
M1121.084473,21.552368 
	C1123.321411,22.288525 1125.576050,22.570127 1125.817505,19.463722 
	C1125.875000,18.723227 1123.983032,17.193434 1122.922119,17.130451 
	C1120.349365,16.977715 1119.349365,18.451719 1121.084473,21.552368 
M1112.969604,51.486027 
	C1111.331909,51.279026 1109.694214,51.072025 1108.056519,50.865025 
	C1108.159302,52.132755 1107.856567,54.235867 1108.437622,54.517811 
	C1110.511230,55.523972 1112.611572,55.374741 1112.969604,51.486027 
M1221.024414,21.489719 
	C1223.529907,22.708637 1224.961792,21.675323 1224.857178,19.148579 
	C1224.814209,18.110609 1223.209106,16.174402 1222.645630,16.288046 
	C1220.241577,16.772865 1219.096191,18.378399 1221.024414,21.489719 
M955.120483,15.323582 
	C957.295715,16.358334 959.500061,16.945295 960.368774,13.901385 
	C960.583496,13.148920 959.581604,11.336678 958.855896,11.157372 
	C956.331604,10.533700 954.765320,11.624782 955.120483,15.323582 
M1055.583984,13.038911 
	C1057.111206,13.462465 1058.638550,13.886020 1060.165771,14.309586 
	C1060.100098,13.033375 1060.489746,10.978204 1059.884644,10.624518 
	C1057.940796,9.488100 1055.759033,9.308699 1055.583984,13.038911 
M776.429993,66.065453 
	C776.626221,65.549019 776.822449,65.032578 777.018738,64.516144 
	C776.801697,64.404037 776.584717,64.291939 776.367737,64.179832 
	C775.061951,66.016823 773.756104,67.853806 772.450256,69.690796 
	C772.744507,69.904541 773.038757,70.118294 773.333008,70.332039 
	C774.232788,69.121223 775.132568,67.910408 776.429993,66.065453 
z"/>
<path fill="#CC8EF5" opacity="1.000000" stroke="none" 
	d="
M470.730286,28.237207 
	C482.814392,40.717636 483.021027,58.490959 471.195099,70.018738 
	C460.172028,80.763931 443.564362,81.673813 431.377716,70.549278 
	C419.611542,59.808506 418.815704,43.070892 429.422577,30.131424 
	C438.567078,18.975910 458.701538,17.209770 470.730286,28.237207 
z"/>
<path fill="#D46ABF" opacity="1.000000" stroke="none" 
	d="
M358.757599,76.003403 
	C343.737610,81.026237 326.919067,70.312004 323.868195,54.918259 
	C320.669464,38.778519 331.300201,26.907629 341.570953,23.285761 
	C357.761566,17.576313 375.564819,27.830303 378.048950,44.339039 
	C380.271362,59.108841 373.466034,70.776375 358.757599,76.003403 
z"/>
<path fill="#DD4687" opacity="1.000000" stroke="none" 
	d="
M269.786499,36.289230 
	C279.355255,50.502373 271.145325,67.753349 257.561798,71.201065 
	C248.639694,73.465645 240.667526,71.727783 234.434799,65.468636 
	C227.848587,58.854496 226.044800,50.206268 229.437531,41.387905 
	C232.620285,33.115280 238.499695,27.756662 248.033661,26.897293 
	C257.023590,26.086966 264.258392,28.502815 269.786499,36.289230 
z"/>
<path fill="#CC8FF4" opacity="1.000000" stroke="none" 
	d="
M525.985474,34.121082 
	C532.308594,24.274967 541.270996,19.462423 552.469971,20.127211 
	C564.079712,20.816378 573.908936,26.307545 578.280334,38.998032 
	C582.033203,49.892811 580.747009,60.264145 572.280701,69.364471 
	C557.805908,84.923172 532.805603,80.145531 524.370239,61.602921 
	C520.269592,52.588913 520.662476,43.258282 525.985474,34.121082 
M535.416687,61.940556 
	C536.127502,62.639194 536.828125,63.348583 537.550720,64.034775 
	C543.867493,70.032837 554.109497,71.076469 562.411987,65.867241 
	C569.478271,61.433701 572.970642,51.029819 569.946716,42.964348 
	C564.830444,29.317806 547.780212,24.474827 537.167786,35.301117 
	C529.740967,42.877640 528.972107,50.909328 535.416687,61.940556 
z"/>
<path fill="#E2264D" opacity="1.000000" stroke="none" 
	d="
M1136.969604,55.863808 
	C1134.452637,50.705658 1131.416870,46.001728 1133.931763,40.279423 
	C1137.046631,33.191803 1143.150391,31.998009 1148.807495,37.302727 
	C1149.407593,37.865490 1150.019653,38.415627 1150.849487,39.176289 
	C1151.768921,38.426113 1152.720459,37.806519 1153.478149,37.003792 
	C1156.454102,33.850735 1159.690796,33.124683 1163.669189,35.238216 
	C1167.669434,37.363338 1169.427612,40.771946 1168.908691,44.928829 
	C1167.650513,55.007336 1161.588501,62.055439 1153.035889,66.728371 
	C1151.327759,67.661644 1147.492920,66.182449 1145.457520,64.695168 
	C1142.285645,62.377487 1139.814209,59.101055 1136.969604,55.863808 
z"/>
<path fill="#E2264D" opacity="1.000000" stroke="none" 
	d="
M1251.676025,38.678730 
	C1255.228638,35.204082 1258.653931,32.288399 1263.542847,35.262287 
	C1268.747803,38.428463 1270.875122,44.477345 1267.411255,50.725433 
	C1264.303589,56.331024 1259.558716,61.106106 1255.130859,65.871063 
	C1252.804443,68.374550 1249.461304,68.215958 1246.834717,65.918701 
	C1241.152954,60.949474 1235.410156,56.047523 1233.862915,47.952446 
	C1232.764038,42.203514 1233.925293,37.998394 1238.440063,35.272865 
	C1243.030884,32.501469 1246.466797,34.894363 1249.657715,38.100193 
	C1250.072021,38.516418 1250.791016,38.629517 1251.676025,38.678730 
z"/>
<path fill="#E2264D" opacity="1.000000" stroke="none" 
	d="
M1334.000244,45.052788 
	C1333.511597,40.173866 1336.225586,36.929695 1339.512939,35.438808 
	C1343.481445,33.639042 1347.620483,35.230225 1350.484131,38.974934 
	C1351.036499,38.794544 1351.627441,38.783989 1351.901855,38.483921 
	C1354.995972,35.100544 1358.936768,33.529388 1362.953613,35.719048 
	C1367.419800,38.153645 1369.249878,42.813793 1367.845459,47.672691 
	C1365.516479,55.730297 1361.161621,62.758621 1353.100342,66.104080 
	C1351.126587,66.923180 1347.587036,65.385941 1345.384521,63.971161 
	C1338.733276,59.698689 1334.923462,53.409431 1334.000244,45.052788 
z"/>
<path fill="#E2264D" opacity="1.000000" stroke="none" 
	d="
M1035.196533,39.582699 
	C1040.881470,33.611858 1042.784912,33.570789 1051.015381,38.811504 
	C1053.194580,37.604027 1055.271851,35.605282 1057.472168,35.458950 
	C1059.949219,35.294235 1063.636353,36.038719 1064.823364,37.753716 
	C1066.670044,40.421722 1068.023682,44.439247 1067.506348,47.537472 
	C1066.197021,55.377914 1060.481812,60.756516 1054.604492,65.579315 
	C1053.320923,66.632538 1050.171509,66.974968 1048.828003,66.133492 
	C1041.221313,61.369511 1035.598877,54.871746 1034.098877,45.681679 
	C1033.803589,43.872810 1034.706055,41.868469 1035.196533,39.582699 
z"/>
<path fill="#E2264D" opacity="1.000000" stroke="none" 
	d="
M1454.580811,64.919655 
	C1448.609985,67.885353 1445.235962,63.962036 1442.148682,60.500397 
	C1438.227539,56.103508 1434.754395,51.330460 1434.941284,44.842434 
	C1435.052124,40.996220 1436.187256,37.994308 1439.929199,36.609188 
	C1443.399170,35.324715 1446.731201,35.347969 1449.250977,38.716625 
	C1449.629272,39.222454 1450.230469,39.561665 1450.697144,39.951717 
	C1452.826538,38.588184 1454.731079,36.428829 1456.871094,36.162514 
	C1465.715698,35.061882 1468.808105,41.230476 1466.564819,49.381016 
	C1464.853882,55.597496 1461.021240,61.291630 1454.580811,64.919655 
z"/>
<path fill="#E2264D" opacity="1.000000" stroke="none" 
	d="
M1552.269653,39.213448 
	C1556.118408,36.133137 1560.630371,35.249805 1563.445312,38.554779 
	C1565.518311,40.988880 1566.335815,45.707436 1565.679932,49.003399 
	C1564.210693,56.385117 1559.291870,61.722080 1552.491455,65.084450 
	C1551.679077,65.486053 1550.285889,65.517372 1549.520630,65.085213 
	C1541.716064,60.678108 1535.994751,54.769135 1536.009766,45.074322 
	C1536.021118,37.758255 1541.763184,34.515545 1548.278198,38.040806 
	C1549.434082,38.666245 1550.750122,38.995491 1552.269653,39.213448 
z"/>
<path fill="#E2264D" opacity="1.000000" stroke="none" 
	d="
M1662.029541,55.867462 
	C1661.650391,56.626869 1661.421143,57.109356 1661.044556,57.402782 
	C1657.432373,60.217674 1655.076782,66.635201 1649.628174,64.520401 
	C1643.467041,62.129131 1639.131714,56.736088 1637.067871,50.152367 
	C1636.404663,48.036926 1635.822021,45.499596 1636.370972,43.471512 
	C1638.417358,35.911556 1644.684326,34.862591 1650.956055,40.876026 
	C1654.187256,38.084743 1657.550903,35.402847 1662.121826,38.048927 
	C1665.421875,39.959381 1666.642456,45.023319 1664.912598,49.894005 
	C1664.218384,51.848663 1663.058960,53.638145 1662.029541,55.867462 
z"/>
<path fill="#E2264D" opacity="1.000000" stroke="none" 
	d="
M2663.766602,52.566433 
	C2663.198730,53.619972 2662.877441,54.380447 2662.415527,55.042717 
	C2653.356934,68.030212 2647.580322,67.634300 2638.917969,53.581852 
	C2636.332520,49.387531 2634.636475,45.045048 2638.055664,40.507431 
	C2641.573975,35.839172 2644.619873,35.981220 2650.937256,40.880329 
	C2658.225830,35.528084 2663.994873,36.749146 2665.526123,44.356224 
	C2666.013184,46.776062 2664.529297,49.592636 2663.766602,52.566433 
z"/>
<path fill="#E2264D" opacity="1.000000" stroke="none" 
	d="
M2760.297607,58.179699 
	C2752.049316,67.432777 2747.932373,66.315331 2740.697021,56.190521 
	C2738.933838,53.723305 2737.605469,50.853191 2736.550537,47.993710 
	C2734.999756,43.791218 2737.156006,40.625225 2740.418701,38.311901 
	C2744.677979,35.291924 2747.770996,38.018902 2750.506104,41.009251 
	C2758.688965,35.736805 2763.698730,36.742836 2765.479492,44.148361 
	C2765.962891,46.159031 2765.358643,48.665783 2764.581055,50.685932 
	C2763.599609,53.235802 2761.929199,55.520531 2760.297607,58.179699 
z"/>
<path fill="#E2264D" opacity="1.000000" stroke="none" 
	d="
M2552.306396,64.286232 
	C2545.606934,63.654381 2538.940186,56.601921 2536.932617,49.093304 
	C2536.025635,45.700523 2536.021729,42.759132 2538.425049,40.071472 
	C2542.205811,35.842781 2544.509766,35.996830 2551.010742,40.880249 
	C2558.086670,35.515083 2564.348633,36.910599 2565.576416,44.415638 
	C2565.956787,46.740757 2565.000000,49.533909 2563.959717,51.792118 
	C2561.537598,57.049488 2558.412354,61.850491 2552.306396,64.286232 
z"/>
<path fill="#A9B8C3" opacity="1.000000" stroke="none" 
	d="
M45.329086,61.804298 
	C42.368580,57.194778 39.416222,52.968861 37.063412,48.432014 
	C34.767296,44.004486 37.096725,40.602962 40.729870,38.113827 
	C44.646339,35.430576 47.452576,37.876869 50.107441,40.547874 
	C50.317051,40.758759 50.675884,40.821323 51.258858,41.086136 
	C54.011017,38.604877 57.081440,34.860943 61.123138,38.199883 
	C63.384148,40.067753 66.110588,43.870968 65.589966,46.089283 
	C64.491425,50.769997 61.414875,54.992149 59.095512,59.373669 
	C58.798031,59.935642 58.183662,60.333290 57.704700,60.795246 
	C52.870434,65.457870 51.697330,65.578766 45.329086,61.804298 
z"/>
<path fill="#E2264D" opacity="1.000000" stroke="none" 
	d="
M945.492920,37.217453 
	C947.453125,38.484127 949.059265,39.601521 950.981628,40.938934 
	C951.386475,40.672012 952.126770,40.342361 952.658813,39.806164 
	C955.212830,37.232254 958.047974,35.826408 961.380981,38.190006 
	C964.600464,40.473129 967.017456,43.303112 965.117737,47.656429 
	C963.576904,51.187351 962.603577,55.262497 960.179688,58.056076 
	C952.819641,66.538742 949.646301,67.089432 942.277588,58.507221 
	C939.437744,55.199715 937.681702,50.696842 936.325928,46.452980 
	C934.913574,42.031918 939.316040,37.739697 945.492920,37.217453 
z"/>
<path fill="#E2264D" opacity="1.000000" stroke="none" 
	d="
M2464.352783,40.891869 
	C2467.063965,49.567451 2460.728516,61.647301 2452.168213,64.206352 
	C2450.552979,64.689201 2447.676514,63.926956 2446.597656,62.684109 
	C2443.109375,58.665508 2439.643066,54.437958 2437.209473,49.750462 
	C2435.027832,45.548790 2436.118652,41.163864 2440.428955,38.257259 
	C2444.814453,35.299915 2447.750977,38.234932 2450.611816,40.963291 
	C2458.491699,35.784126 2458.957764,35.774879 2464.352783,40.891869 
z"/>
<path fill="#E2264D" opacity="1.000000" stroke="none" 
	d="
M2861.802734,55.705688 
	C2859.625000,58.208618 2857.895752,60.656471 2855.719238,62.604908 
	C2852.862549,65.162010 2849.531494,65.147682 2846.505371,62.784126 
	C2841.028564,58.506416 2837.083984,52.906216 2836.377441,46.063652 
	C2836.119873,43.569485 2838.727539,39.975159 2841.050293,38.304577 
	C2842.570557,37.211441 2845.956787,38.536087 2848.445557,39.066086 
	C2849.276123,39.242931 2849.915771,40.314171 2850.740967,41.066044 
	C2853.923584,39.550957 2856.039551,35.236092 2860.649414,37.855824 
	C2865.370117,40.538738 2866.922607,44.726173 2864.633789,50.735718 
	C2864.004395,52.387936 2862.924805,53.868832 2861.802734,55.705688 
z"/>
<path fill="#E2264D" opacity="1.000000" stroke="none" 
	d="
M2350.993164,40.882500 
	C2356.478027,36.424915 2361.917725,36.111397 2363.988525,40.895531 
	C2365.268311,43.851711 2364.749756,47.927822 2364.042480,51.291626 
	C2363.501465,53.862312 2361.758545,56.433434 2359.927979,58.435104 
	C2352.437744,66.625038 2349.496094,66.767342 2342.223633,58.486816 
	C2339.763428,55.685551 2338.273193,51.795174 2337.107910,48.156479 
	C2335.766846,43.967575 2336.846191,40.290375 2341.178711,37.905613 
	C2345.566895,35.490265 2347.849854,38.731850 2350.993164,40.882500 
z"/>
<path fill="#E2264D" opacity="1.000000" stroke="none" 
	d="
M2254.741699,62.770832 
	C2251.727051,65.694901 2249.491455,64.522057 2246.839111,62.518284 
	C2241.849365,58.748718 2237.910645,54.365818 2237.062256,47.999100 
	C2236.551514,44.166271 2236.744141,40.138062 2240.880127,38.132645 
	C2244.802246,36.230907 2248.024902,38.049084 2250.050293,40.338459 
	C2253.536377,39.348331 2256.548584,37.580200 2259.313965,37.906143 
	C2264.362061,38.501171 2267.331299,44.967861 2264.573486,50.491207 
	C2262.334961,54.974277 2258.269287,58.544842 2254.741699,62.770832 
z"/>
<path fill="#E2264D" opacity="1.000000" stroke="none" 
	d="
M1741.697998,57.314083 
	C1739.988892,54.018909 1737.888062,51.162289 1737.159058,47.990372 
	C1736.303345,44.267982 1736.737549,40.149319 1740.861938,38.136478 
	C1744.777588,36.225445 1748.012817,38.023602 1750.052002,40.344826 
	C1753.518677,39.352486 1756.538818,37.558399 1759.296265,37.898102 
	C1764.534424,38.543381 1767.101929,45.107208 1764.390259,50.925156 
	C1762.698730,54.554523 1760.299316,58.115505 1757.419800,60.874546 
	C1751.602783,66.448494 1747.174194,65.308876 1741.697998,57.314083 
z"/>
<path fill="#E2264D" opacity="1.000000" stroke="none" 
	d="
M2139.634766,54.220955 
	C2138.600098,52.164680 2137.291016,50.444309 2137.151855,48.633957 
	C2136.883545,45.148197 2135.981201,41.128838 2140.144043,38.994404 
	C2144.102295,36.964924 2147.758301,37.391922 2150.619629,40.984085 
	C2152.463135,39.919453 2154.010986,38.454521 2155.778809,38.105911 
	C2162.632568,36.754379 2167.178711,41.961880 2164.638916,49.175404 
	C2163.107422,53.525761 2160.081543,57.850285 2156.599854,60.899448 
	C2151.053223,65.757347 2146.734619,64.693695 2142.345459,58.719528 
	C2141.390137,57.418819 2140.700684,55.922474 2139.634766,54.220955 
z"/>
<path fill="#E2264D" opacity="1.000000" stroke="none" 
	d="
M1864.994873,47.663048 
	C1863.539429,54.599598 1859.031006,59.019817 1854.209106,63.025200 
	C1852.971313,64.053261 1849.802124,64.513405 1848.723389,63.678997 
	C1843.372559,59.540115 1838.195923,54.916237 1837.107178,47.740299 
	C1836.606323,44.439060 1836.307251,40.692810 1840.517578,38.841709 
	C1844.468750,37.104553 1847.863281,37.533390 1850.835449,41.295044 
	C1854.071289,37.805820 1858.174561,36.323463 1861.780518,39.198299 
	C1863.743408,40.763103 1863.982056,44.490837 1864.994873,47.663048 
z"/>
<path fill="#E2264D" opacity="1.000000" stroke="none" 
	d="
M2064.971436,48.497078 
	C2061.801270,53.267925 2058.834717,57.774925 2055.442871,61.935265 
	C2052.735107,65.256660 2049.319580,65.231499 2046.555786,61.947754 
	C2043.408569,58.208382 2040.167969,54.407261 2037.852173,50.151829 
	C2035.916382,46.594742 2035.842896,42.016598 2039.538696,39.391800 
	C2043.174561,36.809536 2047.357300,36.947811 2050.518311,40.960464 
	C2052.424072,39.941120 2054.141357,38.425583 2056.057617,38.106319 
	C2062.565674,37.022038 2065.003662,39.898109 2064.971436,48.497078 
z"/>
<path fill="#E2264D" opacity="1.000000" stroke="none" 
	d="
M1958.242554,59.259781 
	C1951.490723,65.977676 1949.496704,65.798256 1941.794067,57.202866 
	C1938.706787,53.757843 1936.135254,49.653141 1937.146484,44.779198 
	C1937.612305,42.533287 1939.294312,39.277718 1941.026367,38.835503 
	C1944.050415,38.063354 1947.539551,39.112320 1951.154785,39.425968 
	C1954.289062,39.251480 1958.134521,38.179886 1961.313965,39.194664 
	C1963.108765,39.767426 1965.003906,43.918751 1964.727539,46.200615 
	C1964.282227,49.876495 1962.146484,53.369637 1960.570923,56.870682 
	C1960.188965,57.719189 1959.206421,58.297424 1958.242554,59.259781 
z"/>
<path fill="#E2264D" opacity="1.000000" stroke="none" 
	d="
M847.870483,40.979134 
	C849.609314,41.419689 851.536133,42.535637 852.251587,42.008240 
	C854.998657,39.983150 858.003174,38.973953 860.024353,41.862324 
	C861.515320,43.992958 862.671692,48.002533 861.640625,49.915405 
	C859.398560,54.074684 855.713562,57.474747 852.477966,61.058262 
	C852.031738,61.552475 850.687073,61.628666 849.925415,61.382168 
	C844.182800,59.523472 838.640991,50.431778 840.125305,44.653164 
	C841.020508,41.168209 843.519531,39.153187 847.870483,40.979134 
z"/>
<path fill="#E2264D" opacity="1.000000" stroke="none" 
	d="
M758.382446,45.859100 
	C760.188477,50.699055 757.289246,53.834091 754.661743,56.524834 
	C752.155396,59.091381 748.849426,58.400566 746.419434,55.765755 
	C742.913330,51.964020 742.000000,47.023548 744.130005,44.696938 
	C744.240906,44.575790 744.299927,44.400162 744.423096,44.298237 
	C745.742737,43.206192 756.522278,44.202080 758.382446,45.859100 
z"/>
<path fill="#CB90F4" opacity="1.000000" stroke="none" 
	d="
M656.000122,20.163521 
	C660.733643,22.350771 665.467651,24.536974 670.198425,26.730217 
	C670.343811,26.797642 670.449402,27.023092 670.583557,27.032583 
	C679.915161,27.692635 676.837463,36.561619 679.721497,41.405869 
	C681.381653,44.194389 680.654724,48.404091 680.622803,52.485680 
	C679.471558,52.995445 678.699768,52.993603 677.959412,52.551666 
	C677.483765,46.627651 678.610229,40.582439 672.613281,36.997189 
	C672.132385,36.709740 672.303406,35.465172 671.981506,34.750999 
	C671.281189,33.197121 670.852600,30.998575 669.615356,30.301390 
	C664.853455,27.618111 659.816772,25.422558 655.121948,22.829548 
	C655.574280,21.797142 655.787231,20.980335 656.000122,20.163521 
z"/>
<path fill="#CB90F3" opacity="1.000000" stroke="none" 
	d="
M655.616394,20.084301 
	C655.787231,20.980335 655.574280,21.797142 654.749268,22.816544 
	C646.766541,22.213642 640.106750,24.165331 633.708740,28.086145 
	C632.920898,27.615347 632.411987,27.272734 631.903137,26.930122 
	C637.013794,21.322830 649.173828,17.713270 655.616394,20.084301 
z"/>
<path fill="#C892EF" opacity="1.000000" stroke="none" 
	d="
M779.965393,55.872383 
	C780.554749,46.388248 779.784729,37.292007 772.615234,29.619370 
	C772.784119,29.113024 772.929199,29.015779 773.074219,28.918533 
	C776.115784,29.317553 779.208496,29.512407 782.164734,30.252417 
	C782.949951,30.448961 784.067749,32.866150 783.736755,33.321556 
	C782.647949,34.819267 780.964233,35.884525 779.725098,36.933083 
	C780.141235,42.101357 780.582825,47.586105 781.021362,53.817520 
	C780.667358,55.000252 780.316406,55.436314 779.965393,55.872383 
z"/>
<path fill="#CB90F3" opacity="1.000000" stroke="none" 
	d="
M663.041077,76.104294 
	C656.369080,80.556740 649.183167,79.317764 641.528320,77.673241 
	C640.695862,76.280823 640.325745,75.220421 640.358948,74.097519 
	C645.907166,74.940361 651.052185,75.845695 655.839294,76.688049 
	C656.581238,74.533157 656.983154,73.365913 657.223694,72.667198 
	C659.028748,73.239037 660.509277,73.708069 662.126587,74.415329 
	C662.522644,75.137138 662.781860,75.620712 663.041077,76.104294 
z"/>
<path fill="#CB90F3" opacity="1.000000" stroke="none" 
	d="
M632.881042,73.048080 
	C629.983154,69.556107 626.577820,66.351768 624.375122,62.465733 
	C623.025146,60.083996 617.963989,59.550320 621.066162,55.035976 
	C622.809082,54.931717 623.824280,54.973568 624.915833,55.389282 
	C627.988403,60.563244 630.984619,65.363335 633.858398,70.448700 
	C633.451050,71.505333 633.166077,72.276711 632.881042,73.048080 
z"/>
<path fill="#C392F0" opacity="1.000000" stroke="none" 
	d="
M727.112915,32.001427 
	C723.602234,38.331406 721.079346,44.938911 722.048035,52.347660 
	C722.437622,55.327499 723.254150,58.251518 723.782593,60.756424 
	C722.719238,60.756424 721.645752,60.653072 720.598633,60.775471 
	C717.226868,61.169613 715.907837,59.418755 717.387634,55.501976 
	C718.498230,54.998951 719.226257,54.909565 719.954346,54.820175 
	C720.299622,52.734848 720.526489,50.621368 721.013855,48.569809 
	C722.185791,43.637138 723.479919,38.733471 725.115967,33.334503 
	C726.042419,32.567741 726.577637,32.284584 727.112915,32.001427 
z"/>
<path fill="#95E1BC" opacity="1.000000" stroke="none" 
	d="
M779.672607,56.027832 
	C780.316406,55.436314 780.667358,55.000252 781.091675,54.272919 
	C782.630920,54.052593 784.248230,53.794353 785.485596,54.362907 
	C785.954590,54.578442 785.614990,56.704300 785.521973,57.950329 
	C785.427002,59.223171 785.346375,60.538342 784.955872,61.735985 
	C784.584900,62.873596 784.059937,64.285202 783.155151,64.822197 
	C782.427856,65.253845 780.616699,64.927429 780.033875,64.272362 
	C779.250366,63.391853 778.945435,61.884888 778.875610,60.622482 
	C778.794678,59.156517 779.190796,57.664181 779.672607,56.027832 
z"/>
<path fill="#96CDED" opacity="1.000000" stroke="none" 
	d="
M729.204712,78.555397 
	C729.184509,75.087173 731.351318,73.070282 733.811707,74.295685 
	C736.448792,75.609108 741.507812,76.016838 739.423218,82.509666 
	C736.081421,81.308632 732.729675,80.104042 729.204712,78.555397 
z"/>
<path fill="#CB91EE" opacity="1.000000" stroke="none" 
	d="
M663.372070,75.949615 
	C662.781860,75.620712 662.522644,75.137138 662.450317,74.273880 
	C666.758362,69.862213 670.879639,65.830215 675.379211,61.845551 
	C676.514526,61.975494 677.271545,62.058109 678.028503,62.140724 
	C674.926147,68.447136 670.601074,73.470726 663.372070,75.949615 
z"/>
<path fill="#94DFC1" opacity="1.000000" stroke="none" 
	d="
M727.070679,32.001686 
	C726.577637,32.284584 726.042419,32.567741 725.237061,32.993553 
	C723.980774,31.949743 721.920959,30.314205 722.196472,29.655424 
	C723.324158,26.959528 725.164246,24.561665 726.742126,22.054087 
	C728.134766,22.952782 729.531250,23.845757 730.911011,24.763842 
	C730.997864,24.821651 730.954163,25.075584 730.902344,25.905373 
	C730.781982,27.188765 730.730591,27.805067 730.679199,28.421368 
	C730.679199,28.421368 730.636108,28.642225 730.176819,28.479202 
	C728.819702,29.572920 727.921875,30.829664 727.024048,32.086407 
	C727.024048,32.086407 727.028381,32.001953 727.070679,32.001686 
z"/>
<path fill="#C991F2" opacity="1.000000" stroke="none" 
	d="
M621.158691,49.990280 
	C622.441040,44.907749 623.723389,39.825230 625.452271,34.378403 
	C626.882202,33.983940 627.865479,33.953785 628.835449,34.292233 
	C626.323425,39.405075 623.143555,43.974434 624.553833,49.836899 
	C623.170654,49.900017 622.164734,49.945152 621.158691,49.990280 
z"/>
<path fill="#99CAF5" opacity="1.000000" stroke="none" 
	d="
M756.975647,20.841705 
	C756.182617,20.591043 755.389587,20.340385 754.002258,19.726936 
	C751.928833,19.195978 750.449768,19.027809 748.970642,18.859642 
	C748.867065,17.538235 748.270081,15.930050 748.817993,14.987287 
	C749.246887,14.249321 751.126160,14.012638 752.304871,14.127904 
	C754.350403,14.327925 756.352600,14.972224 758.837463,15.535524 
	C758.885254,16.503201 758.947266,17.758703 758.739380,19.505302 
	C757.971558,20.278166 757.473572,20.559938 756.975647,20.841705 
z"/>
<path fill="#92E1C4" opacity="1.000000" stroke="none" 
	d="
M678.363037,61.983253 
	C677.271545,62.058109 676.514526,61.975494 675.225952,61.533035 
	C671.917786,57.666573 677.057556,57.529510 677.422119,55.023834 
	C677.750244,54.166836 677.863892,53.554581 677.983398,52.972900 
	C677.989197,53.003479 677.927979,52.991760 677.927979,52.991760 
	C678.699768,52.993603 679.471558,52.995445 680.625977,52.923317 
	C683.233032,54.285145 683.938904,55.762333 681.588928,57.867973 
	C680.398682,58.934490 679.647278,60.490871 678.363037,61.983253 
z"/>
<path fill="#92E3C1" opacity="1.000000" stroke="none" 
	d="
M628.848816,33.923630 
	C627.865479,33.953785 626.882202,33.983940 625.529907,34.002121 
	C623.539734,31.664965 623.201294,29.837811 626.699768,28.965048 
	C628.237366,28.581450 629.641968,27.664297 631.505005,26.959763 
	C632.411987,27.272734 632.920898,27.615347 633.719177,28.444513 
	C635.200989,33.605125 629.674011,31.334730 628.848816,33.923630 
z"/>
<path fill="#96CCF6" opacity="1.000000" stroke="none" 
	d="
M632.944763,73.413162 
	C633.166077,72.276711 633.451050,71.505333 634.247437,70.373917 
	C638.336914,69.082397 638.748962,72.119171 639.955688,74.160019 
	C640.325745,75.220421 640.695862,76.280823 641.107422,77.680000 
	C639.496582,77.886650 637.610352,78.202744 636.257751,77.496658 
	C634.898071,76.786911 634.069702,75.059631 632.944763,73.413162 
z"/>
<path fill="#9CC9F4" opacity="1.000000" stroke="none" 
	d="
M854.882141,13.650846 
	C856.574158,13.206093 857.991577,13.073951 859.391418,12.943440 
	C860.150391,18.480335 860.150391,18.480335 850.422241,16.293060 
	C852.121277,15.347326 853.364380,14.655392 854.882141,13.650846 
z"/>
<path fill="#D294D4" opacity="1.000000" stroke="none" 
	d="
M885.735596,33.590675 
	C883.918823,34.015808 882.236755,34.357178 880.731995,33.983799 
	C880.311829,33.879547 879.917847,31.380068 880.421570,30.500341 
	C880.904968,29.656065 883.232056,28.803297 883.589294,29.149788 
	C884.673340,30.201353 885.195984,31.831711 885.735596,33.590675 
z"/>
<path fill="#C893EE" opacity="1.000000" stroke="none" 
	d="
M748.562622,18.919905 
	C750.449768,19.027809 751.928833,19.195978 753.690674,19.602478 
	C745.429382,19.940260 737.615723,22.039240 730.970947,28.279110 
	C730.730591,27.805067 730.781982,27.188765 730.963989,26.265499 
	C736.781311,23.632410 742.467896,21.306288 748.562622,18.919905 
z"/>
<path fill="#9DD9BF" opacity="1.000000" stroke="none" 
	d="
M827.582642,25.744728 
	C825.826111,25.194258 824.202209,24.657497 823.148438,23.568832 
	C822.805908,23.214964 823.660156,20.900770 824.500488,20.424442 
	C825.379761,19.926010 827.863220,20.320141 827.968201,20.741751 
	C828.342896,22.246588 828.004944,23.928837 827.582642,25.744728 
z"/>
<path fill="#92CEF1" opacity="1.000000" stroke="none" 
	d="
M719.967590,54.424309 
	C719.226257,54.909565 718.498230,54.998951 717.408569,55.142483 
	C716.085144,54.000744 715.123169,52.804855 714.161194,51.608971 
	C715.455139,50.763123 716.749084,49.917271 718.043030,49.071415 
	C718.688965,50.723759 719.334900,52.376099 719.967590,54.424309 
z"/>
<path fill="#94CFE8" opacity="1.000000" stroke="none" 
	d="
M814.839417,49.135567 
	C816.117737,50.520622 817.002808,51.924603 817.887878,53.328590 
	C816.156677,54.034206 814.425415,54.739819 812.694214,55.445427 
	C812.229797,54.919109 811.765320,54.392792 811.300903,53.866478 
	C812.349304,52.295815 813.397766,50.725155 814.839417,49.135567 
z"/>
<path fill="#99DCBD" opacity="1.000000" stroke="none" 
	d="
M886.871948,65.264038 
	C885.325439,65.780174 883.909180,65.913208 881.443115,66.144836 
	C882.184143,63.767075 882.568848,62.001842 883.364075,60.446472 
	C883.515564,60.150196 885.868774,60.347198 886.191711,60.904484 
	C886.834778,62.013870 886.772827,63.531799 886.871948,65.264038 
z"/>
<path fill="#9EDCC8" opacity="1.000000" stroke="none" 
	d="
M926.046753,80.808197 
	C926.787659,77.455818 929.037720,77.305626 930.849426,78.687119 
	C931.645508,79.294128 931.051453,81.724098 931.088623,83.326340 
	C929.413391,82.617996 927.738098,81.909645 926.046753,80.808197 
z"/>
<path fill="#9ACEE5" opacity="1.000000" stroke="none" 
	d="
M828.822327,76.714279 
	C830.498840,77.240952 832.055237,77.858017 833.214905,78.911682 
	C833.565796,79.230446 833.016968,81.461082 832.535278,81.597504 
	C831.218323,81.970451 829.717468,81.694382 828.289490,81.675339 
	C828.376282,80.107651 828.463074,78.539955 828.822327,76.714279 
z"/>
<path fill="#A4E1B8" opacity="1.000000" stroke="none" 
	d="
M1029.012695,79.065475 
	C1029.811646,80.665512 1030.415161,82.220924 1030.472290,83.796165 
	C1030.485474,84.156868 1028.553467,85.001297 1027.634277,84.859779 
	C1026.811401,84.733101 1025.414917,83.113556 1025.536255,82.911263 
	C1026.379150,81.506065 1027.551880,80.298813 1029.012695,79.065475 
z"/>
<path fill="#E1A59D" opacity="1.000000" stroke="none" 
	d="
M987.266602,29.772404 
	C986.837646,31.361345 986.340271,32.892796 985.311462,33.857483 
	C984.990051,34.158817 982.689758,33.188526 982.283569,32.331776 
	C981.850891,31.419218 982.394104,29.001719 982.853333,28.907434 
	C984.138794,28.643507 985.600769,29.239477 987.266602,29.772404 
z"/>
<path fill="#9FDEC6" opacity="1.000000" stroke="none" 
	d="
M910.033569,52.878868 
	C910.891724,51.351501 911.775391,50.226280 912.659058,49.101059 
	C913.741028,49.988586 915.117615,50.704220 915.778625,51.837318 
	C916.100769,52.389462 915.000305,54.584896 914.693604,54.553913 
	C913.122009,54.395111 911.598999,53.753735 910.033569,52.878868 
z"/>
<path fill="#C2C5A5" opacity="1.000000" stroke="none" 
	d="
M1085.264160,63.396820 
	C1086.973267,63.041382 1088.524536,62.832230 1089.951172,63.161995 
	C1090.314697,63.246014 1090.764526,65.504623 1090.332886,65.951637 
	C1089.423462,66.893799 1087.957275,67.298439 1086.719482,67.923637 
	C1086.166260,66.530167 1085.613159,65.136703 1085.264160,63.396820 
z"/>
<path fill="#AED1AB" opacity="1.000000" stroke="none" 
	d="
M986.069153,66.991806 
	C984.921875,65.706795 983.793518,64.473366 983.608276,63.111637 
	C983.532837,62.556763 985.444336,61.331665 986.565552,61.161667 
	C987.255432,61.057079 988.952820,62.648117 988.829895,62.999577 
	C988.329590,64.430687 987.301208,65.677200 986.069153,66.991806 
z"/>
<path fill="#A2E2B7" opacity="1.000000" stroke="none" 
	d="
M1009.542297,54.757523 
	C1007.663574,52.232574 1008.047852,50.148167 1010.698669,49.325096 
	C1011.474487,49.084202 1013.648193,50.722206 1013.851685,51.759777 
	C1014.430054,54.708462 1012.328918,55.237026 1009.542297,54.757523 
z"/>
<path fill="#B0C2C1" opacity="1.000000" stroke="none" 
	d="
M922.370056,19.439137 
	C924.421082,19.798859 926.190063,20.485765 927.959045,21.172657 
	C927.070190,22.112738 926.315674,23.279877 925.245300,23.912998 
	C924.533203,24.334211 923.370178,23.992949 922.088013,23.992949 
	C922.088013,22.334497 922.088013,21.050409 922.370056,19.439137 
z"/>
<path fill="#E995A9" opacity="1.000000" stroke="none" 
	d="
M762.140808,78.025185 
	C760.929871,83.289650 758.528748,79.937248 755.886108,77.538147 
	C757.805847,76.763290 759.725647,75.988434 761.838379,75.898911 
	C762.067810,77.064560 762.104309,77.544868 762.140808,78.025185 
z"/>
<path fill="#D38CBB" opacity="1.000000" stroke="none" 
	d="
M767.140442,75.965912 
	C771.086853,78.508842 768.258118,80.165756 765.935974,82.469574 
	C764.903137,81.172112 763.953552,79.979218 763.196960,78.169327 
	C764.640076,77.023529 765.890259,76.494713 767.140442,75.965912 
z"/>
<path fill="#B0E7A0" opacity="1.000000" stroke="none" 
	d="
M1126.355713,80.289124 
	C1129.904907,79.800560 1130.411865,81.898262 1129.800903,84.201561 
	C1129.591797,84.989998 1127.787109,85.355225 1126.711426,85.913857 
	C1126.480469,84.112549 1126.249390,82.311218 1126.355713,80.289124 
z"/>
<path fill="#CF90BF" opacity="1.000000" stroke="none" 
	d="
M862.980835,80.802628 
	C861.645508,81.635384 860.265076,82.530937 859.052856,82.342766 
	C858.356567,82.234665 857.448975,80.326408 857.540100,79.309471 
	C857.612549,78.500481 859.589600,77.050995 859.801514,77.199409 
	C861.021423,78.053368 861.967468,79.298553 862.980835,80.802628 
z"/>
<path fill="#93CBF5" opacity="1.000000" stroke="none" 
	d="
M621.027222,50.306908 
	C622.164734,49.945152 623.170654,49.900017 624.891113,50.022888 
	C625.350220,51.799068 625.094849,53.407246 624.839478,55.015423 
	C623.824280,54.973568 622.809082,54.931717 621.416626,54.865208 
	C620.991455,53.434875 620.943604,52.029202 621.027222,50.306908 
z"/>
<path fill="#E2264E" opacity="1.000000" stroke="none" 
	d="
M151.792618,47.051140 
	C152.682419,48.280476 153.174286,49.476265 153.666153,50.672050 
	C152.513062,51.096703 151.321640,51.918365 150.219818,51.811993 
	C149.433014,51.736038 148.766525,50.414120 148.046341,49.648167 
	C149.162460,48.771309 150.278564,47.894451 151.792618,47.051140 
z"/>
<path fill="#EAB16C" opacity="1.000000" stroke="none" 
	d="
M1086.802612,28.031225 
	C1087.640869,29.358437 1088.074219,30.669353 1088.507568,31.980263 
	C1087.318481,32.305370 1086.061157,33.017002 1084.963135,32.823708 
	C1084.193481,32.688202 1083.641235,31.318092 1082.991943,30.499317 
	C1084.127197,29.671179 1085.262573,28.843054 1086.802612,28.031225 
z"/>
<path fill="#C6A8C9" opacity="1.000000" stroke="none" 
	d="
M1022.138062,18.051373 
	C1023.984619,18.846180 1025.413818,19.684679 1026.843140,20.523167 
	C1025.673950,21.341646 1024.382812,22.976038 1023.358704,22.823095 
	C1020.479309,22.393028 1020.495361,20.306036 1022.138062,18.051373 
z"/>
<path fill="#DA93C5" opacity="1.000000" stroke="none" 
	d="
M1120.803711,21.262547 
	C1119.349365,18.451719 1120.349365,16.977715 1122.922119,17.130451 
	C1123.983032,17.193434 1125.875000,18.723227 1125.817505,19.463722 
	C1125.576050,22.570127 1123.321411,22.288525 1120.803711,21.262547 
z"/>
<path fill="#B1E5A1" opacity="1.000000" stroke="none" 
	d="
M1112.982422,51.898354 
	C1112.611572,55.374741 1110.511230,55.523972 1108.437622,54.517811 
	C1107.856567,54.235867 1108.159302,52.132755 1108.056519,50.865025 
	C1109.694214,51.072025 1111.331909,51.279026 1112.982422,51.898354 
z"/>
<path fill="#D27ACA" opacity="1.000000" stroke="none" 
	d="
M1220.749023,21.198690 
	C1219.096191,18.378399 1220.241577,16.772865 1222.645630,16.288046 
	C1223.209106,16.174402 1224.814209,18.110609 1224.857178,19.148579 
	C1224.961792,21.675323 1223.529907,22.708637 1220.749023,21.198690 
z"/>
<path fill="#B1B4F6" opacity="1.000000" stroke="none" 
	d="
M955.065491,14.911335 
	C954.765320,11.624782 956.331604,10.533700 958.855896,11.157372 
	C959.581604,11.336678 960.583496,13.148920 960.368774,13.901385 
	C959.500061,16.945295 957.295715,16.358334 955.065491,14.911335 
z"/>
<path fill="#C5A0F3" opacity="1.000000" stroke="none" 
	d="
M1055.344238,12.719229 
	C1055.759033,9.308699 1057.940796,9.488100 1059.884644,10.624518 
	C1060.489746,10.978204 1060.100098,13.033375 1060.165771,14.309580 
	C1058.638550,13.886020 1057.111206,13.462465 1055.344238,12.719229 
z"/>
<path fill="#C892EF" opacity="1.000000" stroke="none" 
	d="
M757.357788,20.915470 
	C757.473572,20.559938 757.971558,20.278166 758.754395,19.932659 
	C762.795959,21.869219 766.552612,23.869514 770.316284,26.294300 
	C770.189331,26.842577 770.055420,26.966362 769.921570,27.090136 
	C765.861023,25.056494 761.800537,23.022861 757.357788,20.915470 
z"/>
<path fill="#C893EE" opacity="1.000000" stroke="none" 
	d="
M767.191528,75.611420 
	C765.890259,76.494713 764.640076,77.023529 763.168091,77.814018 
	C762.946289,78.075691 762.544189,78.026901 762.342529,78.026047 
	C762.104309,77.544868 762.067810,77.064560 762.016785,76.221954 
	C764.942871,74.476242 767.883484,73.092842 770.824097,71.709435 
	C770.955322,71.841614 771.086548,71.973793 771.217834,72.105972 
	C769.892761,73.156296 768.567627,74.206612 767.191528,75.611420 
z"/>
<path fill="#C893EE" opacity="1.000000" stroke="none" 
	d="
M776.231201,66.382523 
	C775.132568,67.910408 774.232788,69.121223 773.333008,70.332039 
	C773.038757,70.118294 772.744507,69.904541 772.450256,69.690796 
	C773.756104,67.853806 775.061951,66.016823 776.367737,64.179832 
	C776.584717,64.291939 776.801697,64.404037 777.018738,64.516144 
	C776.822449,65.032578 776.626221,65.549019 776.231201,66.382523 
z"/>
<path fill="#C893EE" opacity="1.000000" stroke="none" 
	d="
M727.322998,31.987602 
	C727.921875,30.829664 728.819702,29.572920 730.067017,28.503677 
	C729.484985,29.757051 728.553467,30.822924 727.322998,31.987602 
z"/>
<path fill="#C892EF" opacity="1.000000" stroke="none" 
	d="
M771.536804,28.822325 
	C771.070007,28.434772 770.603210,28.047211 770.029053,27.374897 
	C770.055420,26.966362 770.189331,26.842577 770.546753,26.561087 
	C771.157349,26.744326 771.544312,27.085270 771.857300,27.892170 
	C771.701111,28.512859 771.618958,28.667589 771.536804,28.822325 
z"/>
<path fill="#C892EF" opacity="1.000000" stroke="none" 
	d="
M771.931519,28.141111 
	C772.363708,28.092058 772.647644,28.260021 773.002930,28.673260 
	C772.929199,29.015779 772.784119,29.113024 772.405334,29.328777 
	C771.979675,29.368237 771.819580,29.247065 771.614075,28.953041 
	C771.618958,28.667589 771.701111,28.512859 771.931519,28.141111 
z"/>
<path fill="#000000" opacity="1.000000" stroke="none" 
	d="
M535.168640,61.661049 
	C528.972107,50.909328 529.740967,42.877640 537.167786,35.301117 
	C547.780212,24.474827 564.830444,29.317806 569.946716,42.964348 
	C572.970642,51.029819 569.478271,61.433701 562.411987,65.867241 
	C554.109497,71.076469 543.867493,70.032837 537.550720,64.034775 
	C536.828125,63.348583 536.127502,62.639194 535.168640,61.661049 
z"/>
<path fill="#000000" opacity="1.000000" stroke="none" 
	d="
M624.915833,55.389282 
	C625.094849,53.407246 625.350220,51.799068 625.268311,50.004906 
	C623.143555,43.974434 626.323425,39.405075 628.835449,34.292233 
	C629.674011,31.334730 635.200989,33.605125 633.998169,28.572697 
	C640.106750,24.165331 646.766541,22.213642 654.509827,23.032143 
	C659.816772,25.422558 664.853455,27.618111 669.615356,30.301390 
	C670.852600,30.998575 671.281189,33.197121 671.981506,34.750999 
	C672.303406,35.465172 672.132385,36.709740 672.613281,36.997189 
	C678.610229,40.582439 677.483765,46.627651 677.959412,52.551666 
	C677.927979,52.991760 677.989197,53.003479 677.659790,53.111206 
	C677.289429,53.902149 677.248535,54.585361 677.207642,55.268578 
	C677.057556,57.529510 671.917786,57.666573 674.847534,61.485703 
	C670.879639,65.830215 666.758362,69.862213 662.313477,74.035660 
	C660.509277,73.708069 659.028748,73.239037 657.223694,72.667198 
	C656.983154,73.365913 656.581238,74.533157 655.839294,76.688049 
	C651.052185,75.845695 645.907166,74.940361 640.358887,74.097527 
	C638.748962,72.119171 638.336914,69.082397 634.369873,70.088654 
	C630.984619,65.363335 627.988403,60.563244 624.915833,55.389282 
M651.431519,47.001247 
	C650.009094,47.086575 648.586731,47.171898 646.585876,47.291924 
	C647.125305,49.469604 647.174927,51.399136 648.077637,52.764580 
	C648.793945,53.848068 651.384277,55.102531 651.708252,54.790749 
	C653.091614,53.459465 654.257019,51.670879 654.815613,49.839767 
	C655.008606,49.207207 653.208984,47.966812 651.431519,47.001247 
z"/>
<path fill="#CB90F4" opacity="1.000000" stroke="none" 
	d="
M677.422119,55.023834 
	C677.248535,54.585361 677.289429,53.902149 677.653931,53.080627 
	C677.863892,53.554581 677.750244,54.166836 677.422119,55.023834 
z"/>
<path fill="#E2264E" opacity="1.000000" stroke="none" 
	d="
M651.875549,47.002655 
	C653.208984,47.966812 655.008606,49.207207 654.815613,49.839767 
	C654.257019,51.670879 653.091614,53.459465 651.708252,54.790749 
	C651.384277,55.102531 648.793945,53.848068 648.077637,52.764580 
	C647.174927,51.399136 647.125305,49.469604 646.585876,47.291924 
	C648.586731,47.171898 650.009094,47.086575 651.875549,47.002655 
z"/>
</svg>